<?xml version="1.0" encoding="UTF-8"?><svg xmlns="http://www.w3.org/2000/svg" xmlns:xlink="http://www.w3.org/1999/xlink" width="75" zoomAndPan="magnify" viewBox="0 0 75 74.999997" height="74.999997" preserveAspectRatio="xMidYMid meet" version="1.0"><defs><clipPath id="clip-0"><path d="M 16 2.515625 L 73 2.515625 L 73 72.265625 L 16 72.265625 Z M 16 2.515625 " clip-rule="nonzero"/></clipPath><clipPath id="clip-1"><path d="M 70 4 L 73.714844 4 L 73.714844 8 L 70 8 Z M 70 4 " clip-rule="nonzero"/></clipPath></defs><path fill="rgb(98.039246%, 98.039246%, 98.039246%)" d="M 27.113281 45.105469 C 26.996094 45.1875 26.777344 45.230469 26.640625 45.03125 C 26.523438 44.863281 26.433594 44.699219 26.367188 44.53125 C 26.347656 44.480469 26.304688 44.445312 26.253906 44.4375 C 26.199219 44.425781 26.148438 44.445312 26.113281 44.484375 C 25.953125 44.65625 25.769531 44.808594 25.632812 44.917969 C 25.519531 45.011719 25.394531 45.082031 25.265625 45.15625 C 25.148438 45.226562 25.03125 45.292969 24.921875 45.371094 C 24.847656 45.421875 24.757812 45.472656 24.667969 45.53125 C 24.617188 45.5625 24.589844 45.617188 24.59375 45.679688 C 24.601562 45.738281 24.644531 45.785156 24.699219 45.804688 C 25.125 45.953125 25.578125 46.078125 26.066406 46.078125 C 26.355469 46.078125 26.65625 46.035156 26.96875 45.925781 C 27.765625 45.65625 28.636719 45.5625 29.503906 45.648438 C 29.554688 45.65625 29.605469 45.636719 29.640625 45.597656 C 29.671875 45.558594 29.683594 45.503906 29.667969 45.457031 C 29.464844 44.742188 28.898438 44.082031 28.34375 43.441406 C 28.070312 43.121094 27.804688 42.816406 27.613281 42.527344 C 27.4375 42.261719 27.269531 41.992188 27.101562 41.730469 C 27.0625 41.671875 26.996094 41.644531 26.933594 41.660156 C 26.867188 41.679688 26.820312 41.734375 26.816406 41.804688 C 26.808594 41.929688 26.800781 42.054688 26.792969 42.183594 C 26.734375 43.078125 26.667969 44 27.183594 44.742188 C 27.320312 44.941406 27.164062 45.070312 27.113281 45.105469 " fill-opacity="1" fill-rule="nonzero"/><path fill="rgb(98.039246%, 98.039246%, 98.039246%)" d="M 27.496094 38.183594 C 27.5625 38.199219 27.636719 38.171875 27.667969 38.109375 C 27.699219 38.046875 27.691406 37.976562 27.644531 37.929688 C 27.472656 37.671875 27.335938 37.394531 27.203125 37.125 C 26.828125 36.359375 26.433594 35.574219 25.351562 35.363281 C 25.347656 35.363281 25.347656 35.363281 25.347656 35.363281 C 24.707031 35.242188 24.296875 35.320312 24.085938 35.605469 C 23.699219 36.144531 24.28125 37.203125 24.59375 37.773438 L 24.636719 37.851562 C 24.914062 38.347656 25.441406 38.519531 25.980469 38.519531 C 26.472656 38.519531 26.96875 38.378906 27.285156 38.214844 C 27.351562 38.179688 27.421875 38.171875 27.496094 38.183594 " fill-opacity="1" fill-rule="nonzero"/><path fill="rgb(98.039246%, 98.039246%, 98.039246%)" d="M 10.082031 37.570312 C 10.175781 37.589844 10.253906 37.648438 10.300781 37.722656 C 10.398438 37.886719 10.308594 38.058594 10.179688 38.148438 C 10.003906 38.269531 9.855469 38.417969 9.714844 38.566406 L 9.652344 38.628906 C 9.496094 38.78125 9.328125 38.71875 9.226562 38.617188 C 9.125 38.515625 9.0625 38.347656 9.214844 38.191406 C 9.441406 37.96875 9.652344 37.769531 9.890625 37.601562 C 9.960938 37.554688 10.039062 37.5625 10.082031 37.570312 Z M 9.285156 40.707031 C 9.371094 40.707031 9.449219 40.75 9.507812 40.808594 C 9.566406 40.867188 9.601562 40.941406 9.609375 41.015625 C 9.613281 41.09375 9.582031 41.167969 9.519531 41.230469 L 9.382812 41.363281 C 9.28125 41.464844 9.179688 41.464844 9.113281 41.449219 C 9 41.417969 8.898438 41.316406 8.867188 41.203125 C 8.851562 41.136719 8.851562 41.035156 8.949219 40.933594 C 8.949219 40.933594 8.949219 40.933594 8.953125 40.933594 L 9.082031 40.796875 C 9.148438 40.730469 9.214844 40.707031 9.285156 40.707031 Z M 14.476562 51.429688 C 14.46875 51.425781 14.453125 51.414062 14.445312 51.410156 C 14.398438 51.386719 14.335938 51.390625 14.289062 51.421875 C 13.550781 51.945312 12.867188 52.058594 12.191406 51.785156 C 12.121094 51.753906 12.039062 51.78125 12 51.839844 C 11.828125 52.101562 11.355469 52.714844 10.691406 52.746094 C 10.449219 52.761719 10.414062 52.527344 10.410156 52.484375 C 10.402344 52.324219 10.488281 52.148438 10.734375 52.125 C 10.753906 52.117188 10.789062 52.113281 10.785156 52.113281 C 10.808594 52.113281 10.832031 52.105469 10.851562 52.097656 C 10.863281 52.089844 10.882812 52.082031 10.902344 52.070312 C 10.976562 52.027344 11.0625 51.976562 11.136719 51.910156 C 11.226562 51.824219 11.300781 51.746094 11.375 51.652344 C 11.40625 51.617188 11.414062 51.566406 11.40625 51.523438 C 11.394531 51.476562 11.363281 51.4375 11.320312 51.417969 C 11.011719 51.277344 10.773438 51.136719 10.566406 50.96875 C 10.542969 50.941406 10.503906 50.929688 10.472656 50.929688 C 10.46875 50.929688 10.460938 50.929688 10.460938 50.929688 C 10.410156 50.9375 10.375 50.933594 10.34375 50.929688 C 10.253906 50.910156 10.164062 50.886719 10.074219 50.859375 C 9.871094 50.804688 9.664062 50.75 9.441406 50.742188 C 9.199219 50.738281 9.140625 50.53125 9.140625 50.410156 C 9.144531 50.363281 9.164062 50.128906 9.421875 50.128906 C 9.507812 50.132812 9.613281 50.136719 9.714844 50.15625 C 9.761719 50.167969 9.8125 50.148438 9.851562 50.113281 C 9.886719 50.078125 9.902344 50.023438 9.894531 49.976562 C 9.886719 49.945312 9.875 49.925781 9.871094 49.90625 C 9.789062 49.664062 10.007812 49.578125 10.050781 49.5625 C 10.203125 49.511719 10.398438 49.550781 10.464844 49.757812 C 10.753906 50.648438 11.617188 50.988281 12.335938 51.1875 C 13.378906 51.476562 14.050781 50.917969 14.753906 50.21875 C 14.851562 50.117188 14.957031 50.117188 15.023438 50.136719 C 15.140625 50.167969 15.238281 50.269531 15.269531 50.382812 C 15.292969 50.480469 15.269531 50.570312 15.179688 50.65625 C 15.152344 50.6875 15.125 50.710938 15.097656 50.738281 C 15.050781 50.777344 15.03125 50.839844 15.050781 50.894531 C 15.070312 50.953125 15.117188 50.996094 15.175781 51.003906 C 15.25 51.015625 15.90625 51.109375 16.140625 50.960938 C 16.253906 50.894531 16.335938 50.8125 16.414062 50.730469 C 16.46875 50.679688 16.519531 50.625 16.582031 50.578125 C 16.699219 50.492188 16.835938 50.433594 16.980469 50.375 C 17.03125 50.355469 17.082031 50.335938 17.132812 50.3125 C 17.289062 50.242188 17.410156 50.304688 17.472656 50.347656 C 17.570312 50.417969 17.632812 50.542969 17.625 50.648438 C 17.613281 50.722656 17.566406 50.785156 17.476562 50.824219 C 17.433594 50.839844 17.386719 50.859375 17.335938 50.878906 C 17.210938 50.921875 17.070312 50.972656 16.980469 51.042969 C 16.90625 51.097656 16.851562 51.164062 16.800781 51.222656 C 16.753906 51.285156 16.710938 51.335938 16.652344 51.371094 C 16.449219 51.492188 16.253906 51.609375 16.039062 51.609375 C 15.949219 51.609375 15.855469 51.609375 15.761719 51.609375 C 15.300781 51.621094 14.863281 51.628906 14.476562 51.429688 Z M 8.472656 49.664062 C 8.496094 49.753906 8.464844 49.839844 8.382812 49.914062 C 7.886719 50.378906 6.988281 50.722656 6.375 50.675781 C 5.746094 50.625 5.277344 50.3125 4.78125 49.976562 C 4.539062 49.808594 4.285156 49.636719 4 49.496094 C 3.773438 49.375 3.867188 49.164062 3.890625 49.125 C 3.941406 49.019531 4.046875 48.933594 4.179688 48.933594 C 4.222656 48.933594 4.273438 48.945312 4.324219 48.96875 C 4.53125 49.074219 4.730469 49.226562 4.941406 49.390625 C 5.28125 49.652344 5.632812 49.921875 6.039062 50.011719 C 6.601562 50.132812 7.527344 49.878906 7.949219 49.488281 C 8.054688 49.382812 8.160156 49.390625 8.234375 49.414062 C 8.347656 49.449219 8.449219 49.550781 8.472656 49.664062 Z M 6.933594 44.394531 C 6.816406 44.324219 6.722656 44.179688 6.832031 44 C 6.941406 43.820312 7.0625 43.648438 7.183594 43.476562 C 7.289062 43.320312 7.398438 43.164062 7.5 43 C 7.574219 42.882812 7.671875 42.855469 7.742188 42.855469 C 7.746094 42.855469 7.75 42.855469 7.75 42.855469 C 7.871094 42.859375 7.996094 42.933594 8.046875 43.035156 C 8.097656 43.121094 8.089844 43.207031 8.03125 43.304688 C 7.925781 43.480469 7.808594 43.644531 7.695312 43.8125 C 7.582031 43.976562 7.46875 44.136719 7.367188 44.308594 C 7.238281 44.511719 7.035156 44.460938 6.933594 44.394531 Z M 8.117188 39.894531 C 7.472656 40.523438 6.921875 41.347656 6.46875 42.074219 C 6.363281 42.242188 6.222656 42.433594 6.074219 42.632812 C 5.699219 43.144531 5.273438 43.71875 5.1875 44.257812 C 5.15625 44.460938 5 44.46875 4.914062 44.453125 C 4.761719 44.433594 4.566406 44.292969 4.601562 44.054688 C 4.695312 43.464844 5.171875 42.820312 5.589844 42.25 C 5.714844 42.085938 5.832031 41.925781 5.933594 41.777344 L 6.175781 41.414062 C 6.628906 40.730469 7.101562 40.023438 7.679688 39.464844 C 7.75 39.398438 7.816406 39.375 7.878906 39.375 C 7.980469 39.375 8.066406 39.433594 8.113281 39.480469 C 8.210938 39.582031 8.269531 39.75 8.117188 39.894531 Z M 15.988281 52.832031 C 16.035156 52.8125 16.070312 52.765625 16.078125 52.714844 C 16.085938 52.660156 16.066406 52.609375 16.023438 52.574219 C 16.007812 52.5625 15.992188 52.546875 15.976562 52.535156 L 15.945312 52.515625 C 15.761719 52.339844 15.902344 52.164062 15.933594 52.128906 C 16.042969 52.007812 16.230469 51.949219 16.394531 52.09375 C 17.117188 52.742188 18.316406 53.085938 19.601562 53.007812 C 19.65625 53.007812 19.703125 52.972656 19.730469 52.925781 C 19.753906 52.875 19.75 52.816406 19.722656 52.769531 C 19.417969 52.316406 19.230469 51.628906 19.0625 51.023438 C 18.953125 50.617188 18.847656 50.234375 18.714844 49.9375 C 18.683594 49.863281 18.679688 49.792969 18.695312 49.722656 C 18.703125 49.695312 18.703125 49.664062 18.691406 49.636719 C 18.070312 47.875 16.660156 45.644531 14.71875 45.160156 C 13.558594 44.871094 11.339844 44.644531 10.378906 45.636719 C 9.929688 46.105469 9.820312 46.769531 10.0625 47.617188 C 10.121094 47.820312 9.988281 47.9375 9.855469 47.972656 C 9.738281 48.007812 9.535156 48 9.46875 47.777344 C 9.398438 47.511719 9.34375 47.246094 9.304688 46.941406 C 9.300781 46.882812 9.257812 46.832031 9.199219 46.8125 C 9.144531 46.796875 9.078125 46.8125 9.039062 46.859375 C 8.878906 47.035156 8.738281 47.164062 8.59375 47.265625 C 7.613281 47.957031 5.15625 48.46875 5.164062 48.46875 C 5.074219 48.46875 5.019531 48.308594 5.019531 48.164062 C 5.019531 48.015625 5.074219 47.855469 5.164062 47.855469 C 5.992188 47.855469 7.332031 47.40625 8.089844 46.871094 C 8.734375 46.417969 9.214844 45.632812 9.453125 44.664062 C 9.464844 44.597656 9.441406 44.53125 9.378906 44.496094 C 9.324219 44.460938 9.25 44.46875 9.199219 44.511719 C 9.003906 44.691406 8.824219 44.835938 8.644531 44.960938 C 8.558594 45.019531 8.484375 45.03125 8.414062 45 C 8.320312 44.957031 8.25 44.84375 8.238281 44.722656 C 8.234375 44.652344 8.246094 44.515625 8.382812 44.417969 C 9.652344 43.535156 10.210938 42.179688 10.753906 40.867188 C 11.039062 40.171875 11.335938 39.453125 11.734375 38.8125 C 11.972656 38.429688 12.28125 38.035156 12.675781 37.605469 C 12.71875 37.558594 12.726562 37.488281 12.695312 37.429688 C 12.664062 37.371094 12.601562 37.335938 12.539062 37.347656 C 12.277344 37.390625 12.039062 37.339844 11.8125 37.203125 C 11.691406 37.132812 11.667969 37.035156 11.667969 36.964844 C 11.667969 36.84375 11.742188 36.722656 11.839844 36.664062 C 11.929688 36.613281 12.023438 36.617188 12.121094 36.675781 C 12.429688 36.859375 12.777344 36.625 12.996094 36.480469 C 13.199219 36.339844 13.363281 36.148438 13.480469 36.003906 C 13.519531 35.957031 13.527344 35.890625 13.496094 35.835938 C 13.445312 35.734375 13.46875 35.585938 13.550781 35.480469 C 13.601562 35.414062 13.699219 35.339844 13.859375 35.375 L 14.191406 35.453125 C 15.257812 35.707031 16.261719 35.941406 17.347656 35.46875 C 17.386719 35.457031 17.414062 35.425781 17.429688 35.386719 C 17.492188 35.234375 17.660156 35.15625 17.800781 35.171875 C 17.90625 35.183594 17.976562 35.25 17.996094 35.371094 C 18.003906 35.417969 18.019531 35.449219 18.042969 35.492188 L 18.082031 35.578125 C 18.1875 35.742188 18.390625 35.914062 18.742188 35.90625 C 19.027344 35.894531 19.460938 35.871094 19.46875 35.367188 C 19.46875 35.261719 19.398438 35.144531 19.289062 34.964844 C 19.246094 34.890625 19.203125 34.824219 19.183594 34.777344 C 19.101562 34.585938 19.015625 34.417969 18.910156 34.226562 C 18.71875 33.878906 18.246094 33.832031 17.867188 33.800781 C 17.75 33.789062 17.640625 33.777344 17.546875 33.757812 C 17.445312 33.738281 17.378906 33.691406 17.351562 33.609375 C 17.316406 33.503906 17.347656 33.367188 17.429688 33.269531 C 17.484375 33.210938 17.582031 33.140625 17.730469 33.171875 C 17.867188 33.199219 18.019531 33.207031 18.175781 33.222656 C 18.488281 33.246094 18.808594 33.269531 19.007812 33.417969 C 19.230469 33.582031 19.40625 33.804688 19.59375 34.152344 L 19.617188 34.191406 C 19.75 34.441406 19.898438 34.726562 19.992188 35.007812 C 20.019531 35.085938 20.101562 35.132812 20.183594 35.105469 C 20.402344 35.042969 20.535156 34.925781 20.582031 34.761719 C 20.675781 34.394531 20.257812 33.945312 19.949219 33.617188 C 19.890625 33.550781 19.839844 33.496094 19.796875 33.449219 C 19.574219 33.191406 19.445312 32.980469 19.359375 32.722656 C 19.25 32.40625 18.882812 32.492188 18.660156 32.539062 C 18.597656 32.554688 18.539062 32.566406 18.488281 32.574219 C 18.269531 32.585938 18.230469 32.421875 18.21875 32.347656 C 18.207031 32.210938 18.273438 31.980469 18.519531 31.953125 L 18.695312 31.9375 C 19.285156 31.875 19.628906 31.867188 19.863281 32.335938 L 19.945312 32.503906 C 20.074219 32.773438 20.195312 33.027344 20.464844 33.257812 C 20.597656 33.371094 20.707031 33.515625 20.824219 33.664062 L 20.929688 33.796875 C 20.992188 33.867188 21.050781 33.957031 21.105469 34.070312 C 21.128906 34.125 21.179688 34.15625 21.234375 34.160156 C 21.296875 34.164062 21.347656 34.132812 21.378906 34.082031 C 21.625 33.640625 21.230469 33.003906 20.855469 32.546875 C 20.308594 31.886719 19.269531 31.011719 18.800781 31.167969 C 18.566406 31.25 18.324219 31.324219 18.082031 31.394531 C 17.816406 31.476562 17.550781 31.554688 17.289062 31.648438 C 16.914062 31.78125 16.53125 31.90625 16.140625 32.027344 C 15.21875 32.328125 14.261719 32.636719 13.402344 33.058594 C 12.128906 33.683594 11.183594 34.773438 10.265625 35.824219 C 9.652344 36.53125 9.019531 37.261719 8.296875 37.839844 C 6.5 39.269531 5.203125 40.835938 3.703125 42.894531 C 3.417969 43.285156 3.277344 43.730469 3.140625 44.164062 C 3.015625 44.546875 2.902344 44.910156 2.699219 45.238281 C 2.636719 45.335938 2.546875 45.460938 2.4375 45.613281 C 2.296875 45.808594 2.125 46.046875 1.964844 46.300781 C 1.925781 46.359375 1.933594 46.4375 1.980469 46.484375 C 2.03125 46.542969 2.0625 46.621094 2.070312 46.703125 C 2.074219 46.78125 2.089844 46.859375 2.105469 46.933594 C 2.117188 46.992188 2.132812 47.046875 2.136719 47.105469 C 2.144531 47.191406 2.09375 47.261719 2.0625 47.292969 C 1.953125 47.410156 1.78125 47.4375 1.652344 47.335938 C 1.613281 47.300781 1.558594 47.289062 1.511719 47.308594 C 1.460938 47.320312 1.425781 47.359375 1.410156 47.410156 C 1.246094 47.964844 1.347656 48.371094 1.703125 48.625 C 1.820312 48.707031 1.84375 48.8125 1.839844 48.882812 C 1.839844 48.929688 1.859375 48.976562 1.894531 49.003906 C 1.921875 49.03125 1.945312 49.050781 1.964844 49.082031 C 2.09375 49.289062 2.21875 49.539062 2.347656 49.804688 C 2.753906 50.621094 3.214844 51.546875 4.101562 51.742188 C 5.171875 51.980469 6.226562 52.191406 7.363281 52.195312 C 7.535156 52.195312 7.605469 52.296875 7.632812 52.378906 C 7.679688 52.507812 7.644531 52.664062 7.546875 52.746094 C 7.511719 52.773438 7.492188 52.816406 7.492188 52.859375 C 7.492188 52.90625 7.507812 52.949219 7.542969 52.976562 C 7.65625 53.082031 7.804688 53.203125 7.992188 53.308594 C 8.632812 53.675781 9.308594 53.8125 9.957031 53.941406 C 10.300781 54.011719 10.652344 54.082031 11.003906 54.1875 C 11.375 54.296875 11.722656 54.34375 12.058594 54.34375 C 13.117188 54.34375 14.011719 53.863281 14.878906 53.390625 C 15.238281 53.199219 15.609375 52.996094 15.988281 52.832031 " fill-opacity="1" fill-rule="nonzero"/><path fill="rgb(98.039246%, 98.039246%, 98.039246%)" d="M 17.109375 53.226562 C 17.066406 53.210938 17.019531 53.195312 16.980469 53.175781 C 16.945312 53.164062 16.910156 53.160156 16.875 53.171875 C 16.15625 53.367188 15.515625 53.722656 14.894531 54.0625 C 14.035156 54.539062 13.222656 54.988281 12.257812 55.019531 C 12.203125 55.019531 12.152344 55.066406 12.128906 55.121094 C 12.105469 55.175781 12.117188 55.25 12.152344 55.292969 C 12.171875 55.347656 12.21875 55.390625 12.273438 55.398438 C 12.785156 55.488281 13.304688 55.53125 13.824219 55.53125 C 14.738281 55.53125 15.644531 55.398438 16.476562 55.128906 C 16.535156 55.113281 16.578125 55.0625 16.585938 55 C 16.636719 54.46875 16.953125 53.964844 17.285156 53.5 C 17.3125 53.460938 17.320312 53.410156 17.308594 53.367188 C 17.292969 53.320312 17.261719 53.285156 17.214844 53.265625 C 17.179688 53.25 17.144531 53.238281 17.109375 53.226562 " fill-opacity="1" fill-rule="nonzero"/><path fill="rgb(98.039246%, 98.039246%, 98.039246%)" d="M 35.90625 35.699219 C 35.871094 35.632812 35.789062 35.601562 35.71875 35.628906 L 35.566406 35.6875 C 35.242188 35.804688 34.902344 35.929688 34.597656 36.144531 C 34.539062 36.183594 34.480469 36.21875 34.425781 36.25 C 34.179688 36.390625 33.902344 36.550781 33.964844 37.0625 C 34.003906 37.355469 34.125 37.484375 34.253906 37.636719 L 34.339844 37.730469 C 34.460938 37.871094 34.558594 37.992188 34.617188 38.144531 L 34.652344 38.238281 C 34.671875 38.28125 34.683594 38.308594 34.691406 38.328125 C 34.71875 38.371094 34.769531 38.398438 34.820312 38.398438 C 34.839844 38.398438 34.863281 38.394531 34.882812 38.386719 C 34.921875 38.371094 34.945312 38.339844 34.964844 38.304688 C 35.03125 38.304688 35.097656 38.304688 35.164062 38.304688 C 35.683594 38.304688 35.910156 38.148438 36.3125 37.871094 C 36.363281 37.832031 36.414062 37.820312 36.445312 37.820312 C 36.519531 37.816406 36.582031 37.753906 36.589844 37.679688 C 36.617188 37.335938 36.546875 36.808594 36.394531 36.597656 C 36.265625 36.421875 36.171875 36.222656 36.066406 36.011719 C 36.015625 35.910156 35.960938 35.804688 35.90625 35.699219 " fill-opacity="1" fill-rule="nonzero"/><path fill="rgb(98.039246%, 98.039246%, 98.039246%)" d="M 36.445312 38.519531 C 36.226562 38.679688 36.039062 38.796875 35.808594 38.894531 C 35.589844 38.988281 35.222656 38.957031 34.925781 38.929688 C 34.832031 38.921875 34.746094 38.914062 34.667969 38.910156 C 34.507812 38.902344 34.375 38.855469 34.28125 38.777344 C 34.234375 38.742188 34.175781 38.734375 34.125 38.753906 C 34.070312 38.777344 34.035156 38.828125 34.03125 38.882812 C 33.984375 39.351562 33.347656 39.636719 33.078125 39.738281 C 32.3125 40.023438 31.09375 39.484375 30.476562 38.824219 C 30.128906 38.453125 29.71875 38.179688 29.316406 37.914062 C 28.835938 37.601562 28.386719 37.304688 28.0625 36.859375 C 28.015625 36.796875 27.921875 36.78125 27.855469 36.824219 C 27.789062 36.867188 27.765625 36.953125 27.804688 37.027344 C 27.859375 37.125 27.914062 37.226562 27.980469 37.324219 C 28.019531 37.378906 28.058594 37.4375 28.097656 37.496094 C 28.238281 37.710938 28.390625 37.929688 28.417969 38.164062 C 28.585938 39.445312 30.664062 40.496094 31.6875 40.75 C 32.027344 40.832031 32.375 40.867188 32.722656 40.867188 C 34.257812 40.867188 35.785156 40.195312 36.289062 39.953125 C 37.027344 39.59375 36.84375 39.0625 36.679688 38.59375 C 36.667969 38.546875 36.628906 38.511719 36.582031 38.496094 C 36.539062 38.484375 36.488281 38.492188 36.445312 38.519531 " fill-opacity="1" fill-rule="nonzero"/><path fill="rgb(98.039246%, 98.039246%, 98.039246%)" d="M 35.410156 41.132812 C 35.542969 41.460938 35.625 41.808594 35.648438 42.140625 C 35.648438 42.195312 35.683594 42.242188 35.730469 42.269531 C 35.753906 42.277344 35.777344 42.285156 35.800781 42.285156 C 35.828125 42.285156 35.859375 42.277344 35.882812 42.261719 C 36.007812 42.179688 36.128906 42.101562 36.25 42.023438 C 36.773438 41.691406 37.316406 41.347656 37.777344 40.84375 C 37.8125 40.808594 37.824219 40.761719 37.816406 40.710938 C 37.804688 40.664062 37.777344 40.625 37.730469 40.601562 C 37.539062 40.507812 37.363281 40.449219 37.203125 40.417969 C 37.179688 40.414062 37.152344 40.414062 37.128906 40.417969 C 37.082031 40.433594 37.027344 40.449219 36.964844 40.457031 C 36.453125 40.519531 35.96875 40.730469 35.492188 40.9375 C 35.417969 40.96875 35.382812 41.054688 35.410156 41.132812 " fill-opacity="1" fill-rule="nonzero"/><path fill="rgb(98.039246%, 98.039246%, 98.039246%)" d="M 55.5 31.53125 C 55.4375 31.511719 55.371094 31.542969 55.335938 31.597656 C 55.179688 31.847656 55.042969 32.109375 54.910156 32.359375 C 54.640625 32.875 54.359375 33.402344 53.949219 33.816406 C 53.273438 34.492188 52.441406 35.179688 51.722656 35.660156 C 51.652344 35.707031 51.636719 35.792969 51.671875 35.863281 C 51.695312 35.90625 51.703125 35.949219 51.699219 36 C 51.691406 36.210938 51.664062 36.410156 51.609375 36.605469 C 51.597656 36.648438 51.609375 36.699219 51.636719 36.738281 C 51.667969 36.777344 51.710938 36.796875 51.757812 36.796875 C 51.757812 36.796875 51.761719 36.796875 51.765625 36.796875 C 52.363281 36.773438 53.039062 36.75 53.421875 35.8125 C 53.4375 35.785156 53.453125 35.738281 53.472656 35.6875 C 53.515625 35.5625 53.59375 35.339844 53.667969 35.273438 C 54.566406 34.449219 55.742188 33.183594 55.617188 31.667969 C 55.613281 31.597656 55.566406 31.542969 55.5 31.53125 " fill-opacity="1" fill-rule="nonzero"/><path fill="rgb(98.039246%, 98.039246%, 98.039246%)" d="M 28.679688 28.507812 C 27.363281 28.773438 27.078125 28.972656 27.050781 29.210938 C 27.019531 29.488281 27.375 29.648438 27.824219 29.851562 C 28.089844 29.96875 28.390625 30.105469 28.53125 30.242188 C 28.792969 30.507812 28.644531 30.894531 28.445312 31.273438 C 28.3125 31.535156 28.171875 31.738281 28.046875 31.917969 C 27.675781 32.457031 27.40625 32.847656 27.773438 34.121094 C 27.828125 34.304688 27.875 34.5 27.921875 34.699219 C 28.074219 35.324219 28.230469 35.96875 28.585938 36.464844 C 28.980469 37.019531 31.097656 38.648438 31.824219 38.953125 C 32.222656 39.125 32.53125 39.210938 32.761719 39.210938 C 32.925781 39.210938 33.050781 39.167969 33.148438 39.082031 C 33.445312 38.820312 33.289062 38.273438 33.121094 37.699219 C 33.035156 37.398438 32.941406 37.085938 32.941406 36.871094 C 32.941406 35.894531 33.929688 35.511719 34.796875 35.167969 C 35.050781 35.074219 35.285156 34.980469 35.492188 34.875 C 35.558594 34.84375 35.625 34.832031 35.695312 34.851562 C 35.753906 34.863281 35.820312 34.839844 35.859375 34.789062 C 36.449219 33.914062 35.953125 33.304688 35.515625 32.765625 C 35.21875 32.410156 34.945312 32.070312 34.945312 31.660156 C 34.945312 29.898438 34.101562 29.160156 33.03125 28.226562 C 32.90625 28.117188 32.769531 28 32.636719 27.878906 C 32.628906 27.867188 32.617188 27.859375 32.613281 27.851562 C 32.582031 27.824219 32.542969 27.808594 32.492188 27.816406 C 32.476562 27.816406 32.445312 27.8125 32.417969 27.808594 C 32.40625 27.808594 32.394531 27.808594 32.378906 27.808594 C 31.375 27.953125 30.371094 28.160156 29.398438 28.363281 L 28.679688 28.507812 " fill-opacity="1" fill-rule="nonzero"/><path fill="rgb(98.039246%, 98.039246%, 98.039246%)" d="M 22.371094 31.214844 C 22.375 31.214844 22.375 31.214844 22.378906 31.214844 C 22.976562 31.1875 23.507812 31.019531 24.023438 30.847656 C 24.339844 30.746094 24.671875 30.636719 25.019531 30.566406 C 25.550781 30.457031 25.796875 30.136719 26.03125 29.824219 C 26.121094 29.707031 26.214844 29.589844 26.324219 29.476562 C 26.34375 29.457031 26.359375 29.429688 26.363281 29.398438 C 26.683594 27.714844 30.132812 27.394531 31.984375 27.222656 L 32.203125 27.203125 C 32.25 27.199219 32.292969 27.171875 32.316406 27.136719 C 32.34375 27.09375 32.351562 27.046875 32.335938 27.003906 C 32.296875 26.867188 32.195312 26.558594 29.507812 26.695312 C 27.699219 26.761719 26.355469 27.128906 25 27.921875 C 23.941406 28.539062 22.597656 29.574219 22.222656 31.023438 C 22.210938 31.070312 22.222656 31.121094 22.25 31.15625 C 22.28125 31.191406 22.324219 31.214844 22.371094 31.214844 " fill-opacity="1" fill-rule="nonzero"/><path fill="rgb(98.039246%, 98.039246%, 98.039246%)" d="M 23.542969 35.117188 C 23.597656 35.144531 23.667969 35.136719 23.710938 35.09375 C 24.230469 34.640625 25.222656 34.589844 26.175781 34.96875 C 26.867188 35.242188 27.15625 35.738281 27.4375 36.304688 C 27.460938 36.355469 27.519531 36.390625 27.574219 36.390625 C 27.59375 36.390625 27.609375 36.386719 27.628906 36.378906 C 27.703125 36.351562 27.742188 36.273438 27.722656 36.199219 C 27.71875 36.175781 27.710938 36.160156 27.703125 36.152344 C 27.65625 35.980469 27.597656 35.800781 27.535156 35.609375 C 27.121094 34.300781 26.550781 32.511719 27.5 31.441406 C 27.613281 31.316406 27.660156 31.183594 27.640625 31.050781 C 27.605469 30.789062 27.324219 30.605469 27.023438 30.410156 C 26.921875 30.34375 26.8125 30.273438 26.714844 30.199219 C 26.679688 30.175781 26.628906 30.164062 26.589844 30.175781 C 26.542969 30.183594 26.507812 30.210938 26.484375 30.25 C 26.460938 30.296875 26.441406 30.34375 26.417969 30.390625 C 26.328125 30.574219 26.253906 30.730469 26.089844 30.832031 C 25.902344 30.941406 25.714844 31 25.515625 31.054688 C 25.402344 31.085938 25.296875 31.117188 25.179688 31.160156 C 24.289062 31.492188 23.332031 31.8125 22.3125 31.832031 C 22.269531 31.835938 22.230469 31.851562 22.199219 31.886719 C 22.171875 31.917969 22.15625 31.960938 22.160156 32 C 22.257812 33.023438 22.703125 34.699219 23.542969 35.117188 " fill-opacity="1" fill-rule="nonzero"/><g clip-path="url(#clip-0)"><path fill="rgb(98.039246%, 98.039246%, 98.039246%)" d="M 47.042969 54.84375 C 47.042969 54.695312 47.101562 54.539062 47.191406 54.539062 C 47.316406 54.539062 47.378906 54.5625 47.386719 54.585938 C 47.425781 54.675781 47.296875 54.925781 47.136719 55.128906 C 47.078125 55.082031 47.042969 54.957031 47.042969 54.84375 Z M 26.796875 56.550781 C 26.703125 56.671875 26.554688 56.746094 26.398438 56.753906 C 26.390625 56.753906 26.382812 56.753906 26.375 56.753906 C 26.152344 56.753906 25.929688 56.664062 25.746094 56.574219 C 25.664062 56.535156 25.632812 56.457031 25.621094 56.414062 C 25.59375 56.324219 25.605469 56.226562 25.644531 56.160156 C 25.71875 56.035156 25.835938 56.015625 25.90625 56.015625 C 25.90625 56.015625 25.910156 56.015625 25.914062 56.015625 C 25.96875 56.023438 26.003906 56 26.03125 55.960938 C 26.09375 55.890625 26.203125 55.804688 26.359375 55.804688 C 26.585938 55.78125 26.828125 55.933594 26.875 56.171875 C 26.90625 56.304688 26.878906 56.441406 26.796875 56.550781 Z M 45.78125 66.910156 C 45.878906 66.804688 45.9375 66.683594 45.996094 66.570312 C 46.027344 66.507812 46.085938 66.464844 46.160156 66.441406 C 46.191406 66.433594 46.222656 66.429688 46.257812 66.429688 C 46.3125 66.429688 46.367188 66.441406 46.414062 66.464844 C 46.574219 66.5625 46.589844 66.753906 46.515625 66.894531 C 46.425781 67.078125 46.324219 67.226562 46.203125 67.355469 C 46.128906 67.433594 46.042969 67.464844 45.957031 67.441406 C 45.84375 67.414062 45.738281 67.316406 45.703125 67.199219 C 45.683594 67.128906 45.675781 67.019531 45.78125 66.910156 Z M 31.730469 68.113281 C 31.789062 68.046875 31.890625 67.980469 32.003906 67.980469 C 32.070312 67.980469 32.140625 68 32.207031 68.058594 C 32.417969 68.242188 32.617188 68.320312 32.796875 68.285156 C 33.066406 68.238281 33.214844 67.984375 33.34375 67.761719 C 33.417969 67.636719 33.492188 67.507812 33.5625 67.46875 C 33.808594 67.320312 34.207031 67.246094 34.488281 67.234375 C 34.871094 67.21875 35.257812 67.269531 35.628906 67.316406 C 36.226562 67.390625 36.847656 67.46875 37.496094 67.304688 C 37.730469 67.246094 37.839844 67.425781 37.867188 67.542969 C 37.902344 67.675781 37.871094 67.84375 37.671875 67.894531 C 37.03125 68.054688 36.429688 68.050781 35.820312 68.03125 C 35.644531 68.027344 35.453125 67.988281 35.25 67.941406 C 34.722656 67.828125 34.128906 67.695312 33.78125 68.289062 C 33.5625 68.664062 33.226562 68.789062 32.988281 68.832031 C 32.5625 68.902344 32.09375 68.765625 31.757812 68.476562 C 31.574219 68.324219 31.691406 68.160156 31.730469 68.113281 Z M 30.554688 61.753906 C 30.53125 61.585938 30.625 61.484375 30.683594 61.4375 C 30.753906 61.382812 30.839844 61.355469 30.921875 61.355469 C 30.957031 61.355469 30.988281 61.359375 31.015625 61.371094 C 31.085938 61.398438 31.128906 61.460938 31.140625 61.554688 C 31.15625 61.660156 31.238281 62.199219 31.582031 62.199219 C 31.585938 62.199219 31.585938 62.199219 31.589844 62.199219 C 31.6875 62.195312 31.914062 62.191406 32.050781 62.242188 C 32.109375 62.265625 32.164062 62.289062 32.214844 62.308594 C 32.511719 62.4375 32.878906 62.597656 33.179688 62.109375 C 33.292969 61.929688 33.488281 61.933594 33.621094 62.015625 C 33.660156 62.042969 33.855469 62.183594 33.71875 62.410156 C 33.324219 63.035156 32.675781 63.234375 32.066406 62.914062 C 31.878906 62.816406 31.683594 62.800781 31.511719 62.789062 C 31.292969 62.773438 31.121094 62.761719 30.964844 62.609375 C 30.773438 62.414062 30.597656 62.046875 30.554688 61.757812 Z M 37.6875 60.160156 L 37.457031 60.144531 C 37.308594 60.136719 37.160156 60.128906 37.015625 60.105469 C 36.953125 60.097656 36.898438 60.125 36.863281 60.171875 C 36.699219 60.40625 36.4375 60.628906 36.140625 60.78125 C 35.863281 60.925781 34.90625 61.359375 34.265625 60.796875 C 33.90625 60.484375 33.789062 59.738281 34.023438 59.292969 C 34.261719 58.863281 34.824219 58.390625 35.308594 58.214844 C 35.347656 58.203125 35.382812 58.195312 35.414062 58.195312 C 35.566406 58.195312 35.628906 58.332031 35.648438 58.382812 C 35.691406 58.515625 35.679688 58.738281 35.457031 58.816406 C 35.191406 58.910156 34.929688 59.171875 34.726562 59.375 C 34.617188 59.488281 34.515625 59.800781 34.519531 60.015625 C 34.523438 60.144531 34.558594 60.242188 34.628906 60.304688 C 34.964844 60.597656 35.484375 60.460938 35.828125 60.253906 C 35.828125 60.253906 36.136719 60.070312 36.3125 59.867188 C 36.351562 59.824219 36.359375 59.765625 36.339844 59.710938 C 36.300781 59.601562 36.285156 59.460938 36.269531 59.328125 C 36.257812 59.214844 36.246094 59.101562 36.21875 59.003906 C 36.164062 58.769531 36.339844 58.660156 36.457031 58.632812 C 36.585938 58.597656 36.761719 58.632812 36.8125 58.835938 C 36.839844 58.9375 36.855469 59.039062 36.867188 59.144531 C 36.875 59.183594 36.894531 59.21875 36.925781 59.242188 C 36.960938 59.273438 36.988281 59.3125 37.015625 59.375 C 37.027344 59.4375 37.078125 59.488281 37.148438 59.5 L 37.378906 59.527344 C 37.402344 59.527344 37.445312 59.53125 37.503906 59.539062 C 38.542969 59.621094 38.851562 59.574219 38.875 59.332031 C 38.90625 59.085938 39.136719 59.019531 39.277344 59.03125 C 39.347656 59.039062 39.515625 59.082031 39.492188 59.300781 C 39.398438 60.1875 38.714844 60.21875 37.6875 60.160156 Z M 36.28125 49.511719 C 36.234375 49.691406 36.109375 49.785156 35.898438 49.804688 C 35.828125 49.8125 35.765625 49.773438 35.726562 49.742188 C 35.652344 49.675781 35.609375 49.582031 35.609375 49.496094 C 35.609375 49.414062 35.640625 49.34375 35.707031 49.28125 C 35.714844 49.273438 35.722656 49.261719 35.730469 49.253906 C 35.785156 49.171875 35.871094 49.136719 35.964844 49.136719 C 36.015625 49.136719 36.070312 49.152344 36.117188 49.171875 C 36.171875 49.195312 36.339844 49.292969 36.28125 49.511719 Z M 32.5 58.277344 C 32.664062 58.074219 32.746094 58.023438 32.90625 58.125 C 32.972656 58.167969 33.054688 58.15625 33.105469 58.101562 C 33.230469 57.957031 33.304688 57.816406 33.328125 57.660156 C 33.363281 57.453125 33.328125 57.273438 33.285156 57.125 C 33.285156 57.113281 33.277344 57.085938 33.273438 57.050781 C 33.234375 56.859375 33.222656 56.796875 33.160156 56.777344 C 33.035156 56.703125 33.011719 56.601562 33.015625 56.527344 C 33.015625 56.5 33.011719 56.472656 32.996094 56.449219 C 32.941406 56.335938 32.933594 56.15625 33.105469 56.042969 C 33.738281 55.617188 34.117188 55.074219 34.207031 54.476562 C 34.296875 53.859375 34.074219 53.203125 33.5625 52.582031 C 33.410156 52.390625 33.300781 52.101562 33.183594 51.792969 C 32.949219 51.160156 32.660156 50.375 31.773438 50.40625 C 31.523438 50.425781 31.492188 50.1875 31.492188 50.136719 C 31.484375 49.976562 31.574219 49.800781 31.785156 49.792969 C 32.101562 49.777344 32.363281 49.820312 32.59375 49.910156 C 32.644531 49.929688 32.707031 49.917969 32.753906 49.882812 C 32.796875 49.84375 32.8125 49.78125 32.800781 49.726562 C 32.71875 49.417969 32.566406 49.105469 32.449219 48.917969 C 32.402344 48.835938 32.371094 48.734375 32.335938 48.625 C 32.300781 48.523438 32.269531 48.421875 32.222656 48.328125 L 31.921875 47.726562 C 31.851562 47.589844 31.890625 47.480469 31.9375 47.414062 C 32.003906 47.308594 32.128906 47.242188 32.238281 47.246094 C 32.328125 47.253906 32.394531 47.304688 32.441406 47.402344 L 32.757812 48.003906 C 32.78125 48.050781 32.828125 48.082031 32.882812 48.089844 C 32.9375 48.089844 32.988281 48.066406 33.019531 48.023438 C 33.128906 47.871094 33.242188 47.734375 33.367188 47.609375 C 33.515625 47.460938 33.683594 47.519531 33.785156 47.617188 C 33.867188 47.695312 33.960938 47.878906 33.796875 48.046875 C 33.558594 48.289062 33.304688 48.582031 33.289062 48.964844 C 33.289062 48.972656 33.285156 48.988281 33.265625 49.039062 C 33.257812 49.070312 33.257812 49.105469 33.269531 49.136719 C 33.457031 49.667969 33.5 50.132812 33.390625 50.507812 C 33.378906 50.550781 33.386719 50.589844 33.410156 50.628906 C 33.414062 50.640625 33.421875 50.652344 33.425781 50.664062 C 33.519531 50.816406 33.570312 51.011719 33.621094 51.21875 L 33.628906 51.257812 C 33.644531 51.324219 33.699219 51.367188 33.765625 51.375 C 33.832031 51.378906 33.894531 51.34375 33.917969 51.285156 C 34.089844 50.898438 34.433594 50.636719 34.835938 50.363281 C 34.921875 50.304688 35.007812 50.292969 35.085938 50.332031 C 35.183594 50.378906 35.261719 50.503906 35.269531 50.628906 C 35.273438 50.707031 35.257812 50.820312 35.132812 50.90625 L 35.070312 50.945312 C 34.808594 51.117188 34.421875 51.375 34.421875 51.769531 C 34.421875 52.078125 34.449219 52.378906 34.472656 52.671875 L 34.484375 52.789062 C 34.484375 52.8125 34.496094 52.847656 34.507812 52.863281 C 34.566406 52.953125 34.621094 53.039062 34.664062 53.140625 C 34.835938 53.507812 34.921875 53.859375 34.925781 54.214844 C 34.925781 54.277344 34.964844 54.332031 35.023438 54.355469 C 35.117188 54.390625 35.214844 54.429688 35.300781 54.488281 C 35.417969 54.558594 35.542969 54.621094 35.667969 54.6875 L 35.75 54.726562 C 35.769531 54.738281 35.792969 54.761719 35.820312 54.792969 L 35.863281 54.84375 C 35.890625 54.875 35.972656 54.894531 36.015625 54.894531 C 36.113281 54.882812 36.207031 54.910156 36.273438 54.96875 C 36.332031 55.019531 36.359375 55.085938 36.359375 55.175781 C 36.359375 55.539062 36.5625 56.511719 37.074219 56.761719 C 37.40625 56.914062 38.492188 56.878906 38.777344 56.511719 C 38.921875 56.316406 39.164062 56.363281 39.285156 56.457031 C 39.355469 56.511719 39.453125 56.621094 39.328125 56.785156 C 39.070312 57.121094 38.753906 57.292969 38.234375 57.382812 C 37.601562 57.488281 37.152344 57.472656 36.871094 57.339844 C 36.214844 57.023438 35.871094 56.1875 35.777344 55.570312 C 35.773438 55.519531 35.734375 55.46875 35.683594 55.449219 C 35.589844 55.414062 35.511719 55.359375 35.441406 55.273438 C 35.375 55.207031 35.300781 55.167969 35.230469 55.140625 L 35.175781 55.113281 C 35.125 55.089844 35.074219 55.0625 35.050781 55.054688 L 34.992188 55.011719 C 34.957031 54.980469 34.90625 54.972656 34.859375 54.984375 C 34.8125 54.996094 34.777344 55.03125 34.757812 55.074219 C 34.578125 55.511719 34.242188 55.925781 33.761719 56.308594 C 33.699219 56.359375 33.6875 56.449219 33.726562 56.511719 C 33.886719 56.765625 33.976562 57.15625 33.953125 57.527344 C 33.949219 57.582031 33.976562 57.636719 34.023438 57.664062 C 34.066406 57.695312 34.125 57.699219 34.175781 57.675781 C 34.242188 57.640625 34.296875 57.601562 34.347656 57.558594 L 34.460938 57.457031 C 34.628906 57.308594 34.785156 57.164062 34.96875 57.046875 C 35.179688 56.902344 35.320312 57.09375 35.347656 57.132812 C 35.433594 57.265625 35.445312 57.464844 35.261719 57.582031 C 35.125 57.675781 35.003906 57.789062 34.886719 57.894531 C 34.742188 58.03125 34.605469 58.15625 34.441406 58.238281 C 34.191406 58.363281 33.984375 58.371094 33.753906 58.363281 C 33.71875 58.363281 33.65625 58.386719 33.628906 58.425781 C 33.515625 58.570312 33.378906 58.699219 33.226562 58.8125 C 33.191406 58.835938 33.164062 58.875 33.160156 58.917969 C 33.160156 58.941406 33.152344 58.96875 33.148438 58.996094 L 33.109375 59.125 C 32.953125 59.652344 32.804688 60.152344 32.257812 60.253906 C 32.050781 60.292969 31.859375 60.351562 31.671875 60.410156 C 31.519531 60.460938 31.367188 60.511719 31.207031 60.546875 C 30.957031 60.601562 30.695312 60.625 30.378906 60.625 C 30.378906 60.625 30.378906 60.625 30.375 60.625 C 30.265625 60.625 30.1875 60.582031 30.136719 60.5 C 30.074219 60.394531 30.074219 60.25 30.132812 60.148438 C 30.167969 60.085938 30.238281 60.011719 30.378906 60.011719 L 30.460938 60.011719 C 30.695312 60.011719 30.960938 60.015625 31.1875 59.929688 C 31.265625 59.90625 31.34375 59.875 31.417969 59.839844 C 31.539062 59.789062 31.652344 59.742188 31.769531 59.71875 L 31.859375 59.707031 C 32.042969 59.679688 32.320312 59.636719 32.410156 59.339844 C 32.425781 59.289062 32.4375 59.242188 32.449219 59.191406 C 32.464844 59.144531 32.449219 59.09375 32.414062 59.054688 C 32.382812 59.019531 32.339844 59 32.285156 59.003906 L 32.171875 59.015625 C 31.886719 59.046875 31.195312 59.023438 31.179688 59.023438 C 31.089844 59.023438 31.035156 58.863281 31.035156 58.714844 C 31.035156 58.570312 31.089844 58.40625 31.179688 58.40625 C 31.53125 58.40625 31.882812 58.425781 32.226562 58.457031 C 32.367188 58.46875 32.425781 58.371094 32.5 58.277344 Z M 31.425781 65.722656 C 31.398438 65.703125 31.375 65.6875 31.363281 65.679688 C 31.164062 65.484375 31.058594 65.324219 31.007812 65.144531 C 30.953125 64.929688 30.921875 64.695312 30.894531 64.46875 C 30.863281 64.207031 30.832031 63.933594 30.753906 63.671875 C 30.671875 63.417969 30.898438 63.332031 30.945312 63.320312 C 30.984375 63.308594 31.019531 63.300781 31.058594 63.300781 C 31.179688 63.300781 31.300781 63.363281 31.34375 63.511719 C 31.375 63.617188 31.386719 63.804688 31.398438 64 C 31.429688 64.503906 31.464844 65.074219 31.828125 65.242188 C 32.230469 65.425781 32.46875 65.601562 32.488281 65.941406 C 32.496094 66.074219 32.378906 66.195312 32.289062 66.222656 C 32.109375 66.242188 31.875 66.339844 31.761719 66.683594 C 31.761719 66.695312 31.757812 66.710938 31.753906 66.726562 C 31.75 66.96875 31.558594 67.027344 31.425781 67.023438 C 31.375 67.023438 31.136719 67.003906 31.144531 66.734375 C 31.148438 66.382812 31.242188 66.144531 31.441406 65.964844 C 31.472656 65.933594 31.492188 65.886719 31.492188 65.839844 C 31.488281 65.792969 31.460938 65.75 31.425781 65.722656 Z M 46.425781 61.046875 C 46.171875 61.167969 45.96875 61.273438 45.78125 61.484375 C 45.730469 61.542969 45.6875 61.605469 45.636719 61.664062 C 45.574219 61.753906 45.511719 61.835938 45.4375 61.898438 C 45.078125 62.226562 44.945312 62.660156 44.8125 63.089844 C 44.796875 63.140625 44.808594 63.195312 44.839844 63.234375 C 44.890625 63.296875 44.929688 63.371094 44.953125 63.457031 C 44.960938 63.480469 44.960938 63.5625 44.964844 63.613281 C 44.964844 63.765625 44.964844 63.921875 45.109375 63.9375 C 45.183594 63.949219 45.855469 64.082031 46.003906 63.863281 C 46.171875 63.617188 46.320312 63.367188 46.464844 63.097656 C 46.503906 63.019531 46.558594 62.972656 46.628906 62.957031 C 46.691406 62.9375 46.765625 62.953125 46.832031 62.988281 C 46.976562 63.0625 47.085938 63.226562 46.988281 63.421875 L 46.9375 63.511719 C 46.757812 63.871094 46.546875 64.269531 46.226562 64.460938 C 45.949219 64.632812 45.480469 64.589844 45.226562 64.566406 C 45.003906 64.542969 44.835938 64.5 44.699219 64.417969 C 44.65625 64.394531 44.601562 64.390625 44.554688 64.414062 C 44.511719 64.433594 44.476562 64.476562 44.46875 64.527344 C 44.429688 64.765625 44.363281 64.980469 44.265625 65.167969 C 44.230469 65.238281 44.25 65.324219 44.3125 65.367188 C 44.460938 65.472656 44.574219 65.578125 44.667969 65.710938 C 44.875 66.003906 45.011719 66.402344 45.027344 66.742188 C 45.035156 66.847656 45 66.925781 44.921875 66.976562 C 44.828125 67.035156 44.6875 67.039062 44.582031 66.984375 C 44.507812 66.949219 44.425781 66.875 44.414062 66.722656 C 44.398438 66.339844 44.183594 65.996094 43.832031 65.785156 C 43.808594 65.773438 43.777344 65.765625 43.753906 65.765625 C 43.730469 65.765625 43.703125 65.769531 43.679688 65.785156 C 43.589844 65.832031 43.503906 65.871094 43.410156 65.902344 C 42.8125 66.101562 42.171875 66.066406 41.5 66.03125 C 41.039062 66.003906 40.5625 65.980469 40.097656 66.035156 C 39.792969 66.078125 39.554688 66.136719 39.347656 66.183594 C 38.96875 66.277344 38.699219 66.339844 38.265625 66.246094 C 38.21875 66.234375 38.171875 66.246094 38.136719 66.277344 C 38.097656 66.308594 38.078125 66.355469 38.082031 66.402344 L 38.085938 66.480469 C 38.089844 66.523438 38.09375 66.558594 38.09375 66.601562 C 38.09375 66.8125 37.929688 66.890625 37.789062 66.890625 C 37.671875 66.890625 37.480469 66.828125 37.476562 66.597656 C 37.472656 65.882812 37.191406 65.179688 36.921875 64.5 C 36.863281 64.351562 36.804688 64.207031 36.753906 64.0625 C 36.6875 63.886719 36.660156 63.667969 36.636719 63.433594 C 36.582031 62.984375 36.53125 62.515625 36.171875 62.261719 C 36.046875 62.171875 36.027344 62.054688 36.035156 61.96875 C 36.046875 61.84375 36.125 61.726562 36.21875 61.683594 C 36.296875 61.648438 36.375 61.660156 36.460938 61.71875 C 36.761719 61.933594 36.976562 62.125 37.109375 62.421875 C 37.179688 62.582031 37.175781 62.773438 37.171875 62.972656 C 37.164062 63.1875 37.160156 63.40625 37.242188 63.625 C 37.316406 63.824219 37.390625 64.019531 37.46875 64.210938 C 37.632812 64.632812 37.792969 65.023438 37.910156 65.441406 C 37.925781 65.5 37.980469 65.542969 38.042969 65.550781 C 38.070312 65.554688 38.097656 65.554688 38.125 65.566406 C 38.707031 65.761719 39.050781 65.660156 39.527344 65.527344 L 39.703125 65.476562 C 40.132812 65.355469 40.664062 65.375 41.128906 65.390625 L 41.519531 65.402344 C 42.21875 65.417969 43.011719 65.441406 43.492188 64.972656 C 43.75 64.71875 43.882812 64.34375 43.882812 63.863281 C 43.882812 63.296875 43.777344 62.839844 43.625 62.335938 C 43.550781 62.089844 43.765625 62.003906 43.8125 61.984375 C 43.953125 61.941406 44.136719 61.972656 44.207031 62.152344 C 44.230469 62.210938 44.28125 62.25 44.34375 62.253906 C 44.417969 62.253906 44.464844 62.21875 44.488281 62.164062 C 44.613281 61.898438 44.738281 61.707031 44.898438 61.5625 C 45.042969 61.433594 45.164062 61.285156 45.28125 61.140625 C 45.339844 61.066406 45.402344 60.992188 45.464844 60.917969 C 45.613281 60.746094 45.878906 60.625 46.09375 60.53125 C 46.234375 60.464844 46.347656 60.511719 46.414062 60.558594 C 46.515625 60.628906 46.582031 60.753906 46.574219 60.859375 C 46.566406 60.941406 46.515625 61.003906 46.425781 61.046875 Z M 46.90625 59.691406 C 46.890625 59.71875 46.886719 59.714844 46.886719 59.742188 C 46.871094 59.808594 46.828125 59.867188 46.757812 59.90625 C 46.683594 59.957031 46.585938 59.972656 46.507812 59.949219 C 46.328125 59.898438 46.265625 59.714844 46.296875 59.5625 C 46.316406 59.472656 46.359375 59.390625 46.441406 59.296875 C 46.492188 59.242188 46.566406 59.214844 46.644531 59.214844 C 46.722656 59.199219 46.816406 59.242188 46.875 59.300781 C 46.992188 59.417969 46.976562 59.582031 46.90625 59.691406 Z M 47.519531 62.21875 C 47.46875 62.316406 47.394531 62.363281 47.304688 62.367188 C 47.300781 62.367188 47.296875 62.367188 47.292969 62.367188 C 47.179688 62.367188 47.0625 62.296875 47 62.195312 C 46.957031 62.132812 46.925781 62.027344 46.996094 61.894531 C 47.011719 61.867188 47.027344 61.839844 47.054688 61.785156 C 47.0625 61.777344 47.078125 61.746094 47.078125 61.742188 C 47.085938 61.726562 47.089844 61.710938 47.09375 61.695312 C 47.117188 61.558594 47.210938 61.414062 47.390625 61.414062 C 47.472656 61.414062 47.566406 61.457031 47.628906 61.523438 C 47.65625 61.558594 47.703125 61.625 47.699219 61.707031 C 47.679688 61.902344 47.609375 62.046875 47.519531 62.21875 Z M 41.425781 60.015625 C 41.613281 60.09375 41.808594 60.148438 42 60.199219 C 42.085938 60.222656 42.171875 60.242188 42.257812 60.269531 L 42.328125 60.292969 C 42.554688 60.378906 42.738281 60.4375 42.863281 60.367188 C 42.917969 60.335938 42.949219 60.285156 42.964844 60.222656 C 43.011719 59.945312 42.96875 59.75 42.890625 59.523438 C 42.808594 59.296875 42.992188 59.210938 43.050781 59.1875 C 43.179688 59.144531 43.40625 59.152344 43.488281 59.382812 C 43.636719 59.800781 43.636719 60.238281 43.480469 60.546875 C 43.371094 60.777344 43.183594 60.9375 42.929688 61.019531 C 42.726562 61.085938 42.390625 60.972656 42.125 60.886719 C 42.011719 60.847656 41.910156 60.816406 41.820312 60.792969 C 41.519531 60.71875 41.300781 60.648438 41.109375 60.554688 C 41.089844 60.546875 41.066406 60.542969 41.042969 60.542969 C 41.015625 60.542969 40.984375 60.550781 40.960938 60.566406 C 40.734375 60.710938 40.445312 60.703125 40.132812 60.695312 L 40.058594 60.691406 C 39.820312 60.691406 39.761719 60.488281 39.761719 60.367188 C 39.765625 60.234375 39.859375 60.085938 40.050781 60.082031 C 40.089844 60.082031 40.132812 60.085938 40.175781 60.09375 C 40.265625 60.101562 40.363281 60.113281 40.453125 60.101562 C 40.519531 60.097656 40.574219 60.050781 40.585938 59.988281 C 40.605469 59.910156 40.640625 59.84375 40.6875 59.792969 C 40.710938 59.769531 40.726562 59.738281 40.730469 59.699219 C 40.742188 59.484375 40.757812 59.28125 40.859375 59.09375 C 40.910156 58.996094 40.980469 58.945312 41.074219 58.941406 C 41.179688 58.929688 41.3125 59.007812 41.378906 59.113281 C 41.417969 59.175781 41.453125 59.28125 41.382812 59.414062 C 41.339844 59.492188 41.339844 59.597656 41.339844 59.707031 C 41.335938 59.757812 41.335938 59.804688 41.332031 59.855469 C 41.324219 59.925781 41.363281 59.992188 41.425781 60.015625 Z M 42.902344 50.949219 C 42.808594 51.097656 42.640625 51.171875 42.46875 51.160156 C 42.285156 51.144531 42.136719 51.039062 42.066406 50.875 C 42.035156 50.804688 41.980469 50.625 42.109375 50.492188 C 42.132812 50.464844 42.148438 50.433594 42.15625 50.398438 C 42.171875 50.234375 42.234375 50.125 42.375 50.03125 C 42.410156 50.003906 42.464844 49.992188 42.515625 49.992188 C 42.570312 49.992188 42.628906 50.007812 42.671875 50.03125 C 42.820312 50.128906 42.933594 50.296875 42.972656 50.488281 C 43.011719 50.65625 42.984375 50.820312 42.902344 50.949219 Z M 48.367188 33.480469 C 48.375 33.558594 48.335938 33.621094 48.300781 33.660156 C 48.238281 33.726562 48.144531 33.773438 48.058594 33.773438 C 47.855469 33.773438 47.765625 33.609375 47.753906 33.449219 C 47.730469 33.257812 47.804688 33.050781 47.964844 32.835938 L 48.039062 32.742188 C 48.09375 32.675781 48.152344 32.605469 48.171875 32.574219 L 48.195312 32.542969 C 48.25 32.460938 48.277344 32.417969 48.300781 32.308594 C 48.339844 32.128906 48.464844 32.097656 48.550781 32.097656 C 48.585938 32.097656 48.613281 32.105469 48.625 32.105469 C 48.78125 32.140625 48.933594 32.273438 48.886719 32.488281 C 48.839844 32.710938 48.703125 32.882812 48.546875 33.078125 L 48.511719 33.121094 C 48.472656 33.167969 48.4375 33.214844 48.386719 33.308594 C 48.371094 33.332031 48.363281 33.363281 48.363281 33.394531 C 48.363281 33.425781 48.363281 33.457031 48.367188 33.480469 Z M 49.4375 31.128906 C 49.4375 31.238281 49.292969 31.273438 49.191406 31.273438 C 49.09375 31.273438 48.949219 31.238281 48.949219 31.128906 C 48.949219 30.835938 49.070312 30.679688 49.191406 30.679688 C 49.316406 30.679688 49.4375 30.835938 49.4375 31.128906 Z M 60.996094 23.003906 C 60.871094 23.242188 60.71875 23.414062 60.554688 23.515625 C 60.375 23.621094 60.226562 23.523438 60.15625 23.410156 C 60.09375 23.308594 60.046875 23.109375 60.234375 22.984375 C 60.246094 22.976562 60.257812 22.972656 60.265625 22.960938 C 60.28125 22.945312 60.324219 22.914062 60.324219 22.914062 C 60.332031 22.902344 60.34375 22.894531 60.351562 22.882812 C 60.398438 22.820312 60.4375 22.753906 60.472656 22.683594 C 60.59375 22.457031 60.804688 22.554688 60.847656 22.574219 C 60.988281 22.648438 61.097656 22.816406 60.996094 23.003906 Z M 59.824219 21.679688 C 59.808594 21.796875 59.742188 21.921875 59.609375 22.070312 C 59.550781 22.136719 59.464844 22.148438 59.421875 22.152344 C 59.347656 22.164062 59.242188 22.121094 59.183594 22.0625 C 59.042969 21.921875 59.089844 21.734375 59.191406 21.617188 C 59.203125 21.609375 59.210938 21.59375 59.214844 21.582031 C 59.226562 21.554688 59.230469 21.527344 59.238281 21.476562 C 59.25 21.40625 59.300781 21.359375 59.34375 21.332031 C 59.402344 21.292969 59.480469 21.273438 59.546875 21.273438 C 59.570312 21.273438 59.59375 21.273438 59.617188 21.28125 C 59.851562 21.347656 59.835938 21.597656 59.824219 21.679688 Z M 61.339844 21.015625 C 61.433594 20.828125 61.5625 20.664062 61.695312 20.492188 L 61.792969 20.371094 C 61.824219 20.320312 61.933594 20.199219 62.078125 20.199219 C 62.121094 20.199219 62.171875 20.214844 62.222656 20.246094 C 62.296875 20.289062 62.355469 20.378906 62.375 20.472656 C 62.382812 20.519531 62.386719 20.589844 62.34375 20.648438 L 62.222656 20.804688 C 62.097656 20.96875 61.964844 21.140625 61.863281 21.339844 C 61.8125 21.433594 61.742188 21.480469 61.652344 21.488281 C 61.648438 21.488281 61.644531 21.488281 61.640625 21.488281 C 61.53125 21.488281 61.410156 21.417969 61.347656 21.316406 C 61.304688 21.253906 61.269531 21.148438 61.339844 21.015625 Z M 68.246094 12.71875 C 68.25 12.835938 68.179688 12.960938 68.074219 13.023438 C 68.011719 13.058594 67.90625 13.09375 67.777344 13.023438 C 67.46875 12.855469 67.304688 12.5625 67.296875 12.15625 C 67.292969 11.949219 67.449219 11.867188 67.585938 11.867188 C 67.589844 11.867188 67.589844 11.867188 67.59375 11.867188 C 67.714844 11.867188 67.90625 11.929688 67.914062 12.179688 C 67.914062 12.183594 67.921875 12.21875 67.921875 12.242188 C 67.917969 12.261719 67.921875 12.285156 67.925781 12.304688 L 67.953125 12.367188 C 67.964844 12.398438 67.988281 12.429688 68.019531 12.449219 C 68.046875 12.46875 68.074219 12.484375 68.09375 12.496094 C 68.195312 12.546875 68.242188 12.621094 68.246094 12.71875 Z M 71.421875 8.492188 C 70.925781 8.828125 70.5625 9.207031 70.179688 9.609375 C 70 9.796875 69.820312 9.984375 69.625 10.171875 C 69.519531 10.269531 69.414062 10.261719 69.34375 10.246094 C 69.226562 10.210938 69.128906 10.109375 69.101562 9.996094 C 69.078125 9.902344 69.109375 9.8125 69.1875 9.738281 C 69.371094 9.5625 69.542969 9.371094 69.71875 9.183594 C 69.769531 9.128906 69.773438 9.046875 69.730469 8.984375 C 69.679688 8.921875 69.671875 8.84375 69.707031 8.75 C 70.089844 7.71875 70.636719 6.726562 71.160156 5.769531 L 71.480469 5.1875 C 71.765625 4.660156 72.070312 4.195312 72.394531 3.699219 C 72.578125 3.421875 72.761719 3.144531 72.945312 2.855469 C 72.984375 2.785156 72.96875 2.699219 72.90625 2.652344 C 72.773438 2.546875 72.65625 2.511719 72.542969 2.535156 C 72.476562 2.554688 72.386719 2.601562 72.34375 2.707031 C 72.171875 2.941406 71.980469 3.171875 71.792969 3.378906 C 71.238281 3.847656 66.367188 10.417969 66.527344 11.636719 C 66.550781 11.800781 66.644531 11.871094 66.703125 11.898438 C 66.914062 12 66.847656 12.1875 66.820312 12.242188 C 66.757812 12.371094 66.585938 12.519531 66.371094 12.417969 C 66.121094 12.296875 65.949219 12.140625 65.84375 11.9375 C 65.824219 11.894531 65.78125 11.863281 65.730469 11.855469 C 65.683594 11.847656 65.632812 11.863281 65.601562 11.898438 C 65.542969 11.957031 65.472656 11.992188 65.398438 12 C 65.347656 12.003906 65.304688 12.035156 65.28125 12.078125 C 64.683594 13.171875 63.664062 13.972656 62.675781 14.75 C 61.964844 15.3125 61.226562 15.894531 60.640625 16.585938 C 59.800781 17.578125 58.703125 18.359375 57.636719 19.113281 C 56.640625 19.820312 55.609375 20.554688 54.777344 21.46875 C 53.796875 22.550781 52.933594 23.738281 52.09375 24.886719 C 51.332031 25.929688 50.542969 27.015625 49.667969 28.015625 C 48.59375 29.246094 47.933594 30.816406 47.296875 32.335938 C 47.09375 32.816406 46.894531 33.296875 46.683594 33.753906 C 46.675781 33.773438 46.671875 33.792969 46.671875 33.8125 C 46.664062 33.890625 46.632812 34.035156 46.460938 34.101562 C 46.140625 34.222656 45.832031 34.324219 45.539062 34.417969 C 44.414062 34.785156 43.441406 35.101562 42.523438 36.234375 C 42.171875 36.667969 41.695312 37.054688 41.195312 37.460938 C 40.445312 38.070312 39.671875 38.695312 39.3125 39.515625 C 38.828125 40.601562 38.324219 41.417969 37.773438 42.015625 C 37.453125 42.359375 37.035156 42.542969 36.59375 42.742188 C 36.082031 42.96875 35.550781 43.203125 35.121094 43.730469 C 34.980469 43.972656 34.863281 44.214844 34.75 44.453125 C 34.472656 45.035156 34.207031 45.585938 33.675781 46.035156 C 33.488281 46.191406 33.289062 46.085938 33.195312 45.980469 C 33.15625 45.929688 33.042969 45.769531 33.222656 45.617188 C 33.773438 45.152344 34.027344 44.59375 34.292969 44 L 34.390625 43.785156 C 34.441406 43.679688 34.492188 43.574219 34.539062 43.46875 C 34.871094 42.789062 35.183594 42.148438 34.847656 41.359375 C 34.816406 41.285156 34.734375 41.25 34.660156 41.273438 C 34.292969 41.398438 33.992188 41.457031 33.714844 41.457031 C 32.886719 41.457031 32.089844 41.300781 31.417969 41.152344 C 31.363281 41.140625 31.304688 41.15625 31.269531 41.199219 C 31.230469 41.242188 31.222656 41.304688 31.242188 41.355469 C 31.40625 41.789062 31.503906 42.183594 31.566406 42.644531 C 31.636719 43.179688 31.976562 43.664062 32.28125 44.089844 L 32.320312 44.144531 C 32.449219 44.332031 32.320312 44.457031 32.257812 44.5 C 32.144531 44.578125 31.914062 44.628906 31.773438 44.433594 C 31.417969 43.925781 30.976562 43.296875 30.953125 42.617188 C 30.941406 42.441406 30.605469 41.195312 30.472656 40.964844 C 30.453125 40.929688 30.421875 40.902344 30.378906 40.894531 C 30.359375 40.886719 30.339844 40.878906 30.316406 40.867188 C 30.296875 40.859375 30.273438 40.855469 30.253906 40.855469 C 30.148438 40.867188 30.105469 40.816406 30.082031 40.785156 C 30.070312 40.769531 30.054688 40.753906 30.035156 40.742188 C 29.578125 40.488281 29.113281 40.03125 28.738281 39.664062 C 28.625 39.550781 28.523438 39.449219 28.421875 39.355469 C 28.171875 39.125 28.074219 38.902344 27.984375 38.675781 C 27.964844 38.621094 27.914062 38.582031 27.859375 38.578125 C 27.796875 38.570312 27.746094 38.601562 27.714844 38.648438 C 27.691406 38.683594 27.65625 38.714844 27.609375 38.738281 C 27.167969 38.964844 26.746094 39.109375 26.355469 39.164062 C 26.304688 39.171875 26.253906 39.207031 26.234375 39.257812 C 26.214844 39.308594 26.222656 39.367188 26.253906 39.410156 C 26.863281 40.207031 27.386719 41.035156 27.945312 41.910156 C 28.089844 42.136719 28.234375 42.367188 28.382812 42.59375 C 28.628906 42.976562 28.914062 43.308594 29.191406 43.625 C 29.726562 44.246094 30.234375 44.832031 30.335938 45.703125 C 30.34375 45.765625 30.386719 45.816406 30.445312 45.832031 C 30.800781 45.941406 31.128906 46.074219 31.40625 46.230469 C 31.488281 46.273438 31.53125 46.332031 31.546875 46.40625 C 31.5625 46.476562 31.546875 46.554688 31.507812 46.625 C 31.449219 46.730469 31.296875 46.871094 31.089844 46.757812 C 29.832031 46.058594 28.449219 46.269531 27.113281 46.472656 C 26.492188 46.566406 25.851562 46.667969 25.246094 46.667969 C 25.035156 46.667969 24.601562 46.535156 24.183594 46.40625 C 23.363281 46.15625 22.851562 46.015625 22.601562 46.15625 C 22.167969 46.394531 21.441406 46.367188 20.855469 46.347656 C 20.691406 46.339844 20.539062 46.335938 20.402344 46.335938 C 20.175781 46.335938 20.085938 46.171875 20.085938 46.027344 C 20.085938 45.886719 20.160156 45.71875 20.375 45.71875 C 20.476562 45.71875 20.589844 45.71875 20.699219 45.71875 C 21.121094 45.722656 21.609375 45.730469 22.046875 45.636719 C 22.113281 45.621094 22.164062 45.5625 22.167969 45.496094 C 22.171875 45.425781 22.128906 45.363281 22.0625 45.339844 C 20.667969 44.859375 18.925781 44.910156 16.890625 45.488281 C 16.835938 45.5 16.792969 45.546875 16.78125 45.601562 C 16.769531 45.65625 16.789062 45.714844 16.832031 45.75 C 17.9375 46.679688 18.800781 48.019531 19.335938 49.621094 C 19.355469 49.679688 19.359375 49.738281 19.34375 49.785156 C 19.335938 49.820312 19.335938 49.855469 19.351562 49.886719 C 19.449219 50.117188 19.535156 50.347656 19.625 50.574219 C 20.035156 51.648438 20.425781 52.664062 21.542969 53.484375 C 22.003906 53.824219 22.332031 54.292969 22.683594 54.792969 C 23.035156 55.296875 23.398438 55.8125 23.914062 56.210938 C 24.050781 56.316406 24.367188 56.640625 24.734375 57.011719 C 25.886719 58.1875 26.734375 59.019531 27.125 59.019531 C 27.128906 59.019531 27.132812 59.019531 27.132812 59.019531 C 28.101562 59.011719 28.394531 59.152344 29.273438 59.589844 C 29.484375 59.695312 29.421875 59.878906 29.394531 59.9375 C 29.339844 60.054688 29.1875 60.203125 28.984375 60.125 C 28.949219 60.109375 28.90625 60.109375 28.867188 60.125 C 28.84375 60.136719 28.820312 60.144531 28.804688 60.148438 C 28.761719 60.15625 28.714844 60.164062 28.667969 60.171875 C 28.4375 60.210938 28.121094 60.261719 27.984375 60.554688 L 27.945312 60.640625 C 27.890625 60.765625 27.835938 60.894531 27.730469 61 C 27.671875 61.039062 27.664062 61.125 27.6875 61.1875 C 27.6875 61.375 27.734375 61.558594 27.785156 61.75 C 27.796875 61.792969 27.828125 61.828125 27.871094 61.847656 C 27.910156 61.867188 27.960938 61.867188 27.996094 61.851562 C 28.34375 61.695312 28.730469 61.546875 29.03125 61.625 C 29.382812 61.722656 29.574219 61.992188 29.796875 62.300781 L 29.851562 62.382812 C 29.914062 62.464844 29.925781 62.542969 29.894531 62.613281 C 29.851562 62.714844 29.730469 62.789062 29.609375 62.800781 C 29.539062 62.808594 29.40625 62.800781 29.308594 62.664062 C 29.289062 62.640625 29.269531 62.609375 29.25 62.578125 C 29.152344 62.425781 29.007812 62.195312 28.78125 62.25 C 28.496094 62.320312 28.253906 62.402344 28.019531 62.515625 C 27.996094 62.523438 27.980469 62.527344 27.960938 62.535156 C 27.902344 62.550781 27.863281 62.59375 27.847656 62.648438 C 27.828125 62.734375 27.796875 62.828125 27.753906 62.914062 C 27.734375 62.964844 27.738281 63.023438 27.765625 63.066406 L 27.984375 63.375 C 28.070312 63.507812 28.164062 63.605469 28.257812 63.699219 C 28.300781 63.746094 28.34375 63.789062 28.386719 63.839844 C 28.667969 64.144531 29.003906 64.238281 29.355469 64.335938 L 29.460938 64.367188 C 29.683594 64.429688 29.691406 64.632812 29.660156 64.742188 C 29.621094 64.878906 29.507812 65.015625 29.296875 64.960938 L 29.191406 64.929688 C 28.769531 64.8125 28.332031 64.6875 28.050781 64.375 C 27.992188 64.304688 27.925781 64.242188 27.859375 64.179688 C 27.757812 64.082031 27.65625 63.984375 27.574219 63.871094 C 27.53125 63.804688 27.488281 63.738281 27.445312 63.667969 C 27.421875 63.632812 27.386719 63.605469 27.34375 63.597656 C 27.300781 63.589844 27.257812 63.601562 27.222656 63.625 C 26.617188 64.074219 25.847656 63.890625 25.105469 63.625 C 24.960938 63.574219 24.914062 63.46875 24.898438 63.386719 C 24.875 63.257812 24.921875 63.113281 25.007812 63.039062 C 25.074219 62.984375 25.152344 62.976562 25.25 63.007812 L 25.355469 63.046875 C 25.863281 63.234375 26.632812 63.515625 27.042969 62.914062 C 27.230469 62.632812 27.378906 62.347656 27.183594 61.953125 C 27.117188 61.820312 27.09375 61.722656 27.082031 61.605469 C 27.078125 61.558594 27.054688 61.523438 27.019531 61.496094 C 26.984375 61.472656 26.9375 61.460938 26.894531 61.472656 C 26.6875 61.519531 26.472656 61.5625 26.261719 61.609375 L 25.878906 61.6875 C 25.621094 61.746094 25.324219 61.804688 25.078125 61.730469 C 24.527344 61.566406 24.203125 61.175781 24.160156 60.640625 L 24.148438 60.535156 C 24.109375 60.050781 24.101562 59.695312 24.417969 59.523438 C 24.585938 59.433594 24.679688 59.421875 24.710938 59.445312 C 24.8125 59.507812 24.785156 59.894531 24.773438 60.078125 C 24.757812 60.253906 24.75 60.394531 24.777344 60.488281 C 24.972656 61.167969 25.476562 61.128906 25.894531 61.023438 C 25.980469 61.003906 26.105469 60.992188 26.234375 60.972656 C 26.585938 60.9375 26.984375 60.890625 27.164062 60.703125 C 27.28125 60.578125 27.355469 60.441406 27.429688 60.304688 C 27.492188 60.1875 27.550781 60.078125 27.628906 59.992188 C 27.667969 59.949219 27.683594 59.886719 27.664062 59.835938 C 27.644531 59.78125 27.597656 59.742188 27.542969 59.734375 L 27.476562 59.726562 C 26.78125 59.625 26.125 59.527344 25.644531 58.960938 C 25.101562 58.320312 24.503906 57.761719 23.929688 57.222656 C 23.535156 56.847656 23.125 56.464844 22.734375 56.054688 C 22.390625 55.699219 22.074219 55.320312 21.769531 54.957031 C 21.382812 54.492188 20.980469 54.015625 20.523438 53.578125 C 20.488281 53.539062 20.4375 53.527344 20.390625 53.53125 C 19.636719 53.664062 18.855469 53.664062 18.128906 53.527344 C 18.070312 53.515625 18.011719 53.539062 17.976562 53.585938 C 16.941406 54.988281 17.511719 55.886719 18.230469 57.023438 C 18.296875 57.132812 18.367188 57.246094 18.4375 57.359375 C 18.644531 57.695312 18.847656 58.039062 19.050781 58.378906 C 19.476562 59.089844 19.914062 59.820312 20.378906 60.511719 C 21.296875 61.875 22.042969 62.914062 23.316406 63.851562 C 23.5 63.988281 23.664062 64.160156 23.824219 64.324219 C 24.253906 64.773438 24.742188 65.277344 25.578125 64.960938 C 25.789062 64.882812 25.875 65.039062 25.898438 65.109375 C 25.949219 65.238281 25.941406 65.476562 25.714844 65.566406 C 25.515625 65.636719 25.351562 65.679688 25.191406 65.707031 C 25.144531 65.714844 25.101562 65.746094 25.078125 65.789062 C 25.054688 65.835938 25.058594 65.886719 25.082031 65.933594 C 25.199219 66.148438 25.378906 66.324219 25.550781 66.492188 L 25.730469 66.671875 C 25.898438 66.851562 26.128906 67.09375 26.394531 67.160156 C 26.464844 67.179688 26.542969 67.144531 26.570312 67.078125 C 26.609375 67.003906 26.640625 66.921875 26.671875 66.847656 C 26.753906 66.652344 26.828125 66.464844 26.984375 66.296875 C 26.996094 66.285156 27.03125 66.234375 27.039062 66.21875 C 27.074219 66.167969 27.078125 66.097656 27.042969 66.042969 L 26.894531 65.804688 C 26.769531 65.605469 26.640625 65.40625 26.507812 65.210938 C 26.449219 65.125 26.4375 65.039062 26.476562 64.960938 C 26.523438 64.863281 26.644531 64.785156 26.769531 64.777344 C 26.851562 64.773438 26.964844 64.792969 27.046875 64.917969 C 27.167969 65.097656 27.28125 65.285156 27.394531 65.476562 C 27.605469 65.824219 27.824219 66.183594 28.101562 66.492188 C 28.644531 67.097656 29.171875 67.164062 29.902344 67.164062 C 29.929688 67.164062 29.96875 67.164062 29.988281 67.164062 C 30.191406 67.164062 30.269531 67.320312 30.269531 67.457031 C 30.273438 67.574219 30.210938 67.773438 29.980469 67.777344 C 29.148438 67.785156 28.472656 67.742188 27.945312 67.21875 C 27.832031 67.109375 27.734375 66.992188 27.640625 66.875 C 27.609375 66.835938 27.550781 66.8125 27.5 66.820312 C 27.449219 66.828125 27.402344 66.863281 27.378906 66.910156 C 27.09375 67.585938 27.046875 67.9375 27.347656 68.675781 C 27.671875 69.472656 27.816406 70.109375 27.816406 70.738281 C 27.816406 71.191406 27.898438 71.464844 28.074219 71.640625 C 28.316406 71.875 28.6875 71.863281 29.160156 71.851562 L 29.414062 71.84375 C 29.671875 71.839844 29.929688 71.828125 30.191406 71.8125 L 30.390625 71.804688 C 30.441406 71.800781 30.484375 71.777344 30.511719 71.738281 C 30.535156 71.699219 30.546875 71.652344 30.53125 71.605469 L 30.5 71.484375 C 30.488281 71.445312 30.460938 71.410156 30.421875 71.390625 C 30.410156 71.386719 30.371094 71.375 30.359375 71.371094 C 30.007812 71.285156 29.707031 71.132812 29.378906 70.875 C 29.050781 70.617188 28.792969 70.316406 28.617188 69.988281 C 28.488281 69.75 28.460938 69.460938 28.429688 69.15625 C 28.410156 68.980469 28.390625 68.796875 28.351562 68.625 C 28.320312 68.480469 28.375 68.386719 28.433594 68.335938 C 28.519531 68.25 28.65625 68.214844 28.769531 68.25 C 28.859375 68.277344 28.917969 68.34375 28.941406 68.449219 C 28.96875 68.570312 28.984375 68.722656 29 68.882812 C 29.03125 69.230469 29.066406 69.589844 29.238281 69.835938 C 29.394531 70.066406 29.824219 70.613281 30.347656 70.734375 C 30.59375 70.792969 30.804688 70.839844 30.972656 71.011719 C 31.042969 71.078125 31.0625 71.179688 31.089844 71.296875 C 31.113281 71.433594 31.144531 71.585938 31.257812 71.714844 C 31.285156 71.75 31.324219 71.773438 31.375 71.773438 L 31.597656 71.765625 C 31.863281 71.753906 32.304688 71.742188 32.378906 71.746094 C 32.433594 71.753906 32.496094 71.71875 32.523438 71.664062 C 32.527344 71.660156 32.542969 71.621094 32.546875 71.617188 C 32.554688 71.589844 32.558594 71.5625 32.550781 71.535156 C 32.53125 71.441406 32.535156 71.328125 32.539062 71.214844 C 32.542969 71.167969 32.542969 71.121094 32.542969 71.085938 C 32.546875 71.015625 32.5625 70.949219 32.574219 70.886719 C 32.585938 70.839844 32.574219 70.792969 32.550781 70.761719 C 32.519531 70.722656 32.480469 70.699219 32.433594 70.699219 C 32.300781 70.691406 32.183594 70.679688 32.035156 70.636719 C 31.785156 70.566406 31.628906 70.34375 31.460938 70.109375 C 31.292969 69.875 31.121094 69.636719 30.84375 69.507812 C 30.460938 69.328125 30.402344 69.09375 30.285156 68.621094 C 30.226562 68.390625 30.40625 68.277344 30.523438 68.25 C 30.652344 68.21875 30.824219 68.25 30.875 68.449219 C 31.007812 68.980469 32.152344 70.070312 32.722656 70.097656 C 32.914062 70.109375 33.128906 70.226562 33.226562 70.375 C 33.296875 70.472656 33.316406 70.578125 33.28125 70.6875 C 33.207031 70.914062 33.214844 71.160156 33.222656 71.398438 L 33.226562 71.515625 C 33.230469 71.585938 33.28125 71.644531 33.347656 71.660156 C 33.871094 71.773438 34.410156 71.773438 34.941406 71.773438 L 35.113281 71.773438 C 35.574219 71.773438 36.050781 71.804688 36.511719 71.835938 C 36.984375 71.871094 37.476562 71.902344 37.957031 71.902344 C 38.222656 71.902344 38.398438 71.902344 38.523438 71.890625 C 38.566406 71.886719 38.609375 71.863281 38.632812 71.828125 C 38.660156 71.792969 38.671875 71.746094 38.660156 71.707031 C 38.632812 71.589844 38.714844 71.515625 38.753906 71.484375 C 38.804688 71.445312 38.824219 71.375 38.800781 71.3125 C 38.765625 71.21875 38.726562 71.105469 38.691406 70.960938 C 38.65625 70.816406 38.601562 70.683594 38.554688 70.554688 C 38.507812 70.445312 38.464844 70.335938 38.433594 70.21875 C 38.402344 70.121094 38.386719 70.03125 38.367188 69.953125 C 38.296875 69.65625 38.246094 69.425781 37.886719 69.144531 C 37.726562 69.015625 37.792969 68.878906 37.847656 68.808594 C 37.941406 68.6875 38.160156 68.582031 38.351562 68.730469 C 38.90625 69.167969 38.980469 69.519531 39.09375 70.054688 C 39.140625 70.269531 39.195312 70.515625 39.285156 70.796875 C 39.339844 70.980469 39.4375 71.332031 39.449219 71.675781 C 39.449219 71.71875 39.472656 71.761719 39.503906 71.789062 C 39.933594 72.132812 40.5625 72.246094 41.242188 72.246094 C 42.109375 72.246094 43.050781 72.0625 43.730469 71.929688 C 43.867188 71.902344 43.988281 71.878906 44.09375 71.859375 C 44.09375 71.855469 44.101562 71.855469 44.105469 71.855469 C 44.164062 71.847656 44.214844 71.808594 44.234375 71.753906 C 44.253906 71.695312 44.277344 71.640625 44.296875 71.582031 L 44.375 71.382812 C 44.453125 71.167969 44.515625 70.996094 44.480469 70.722656 C 44.464844 70.578125 44.386719 70.453125 44.320312 70.347656 C 44.269531 70.265625 44.222656 70.1875 44.207031 70.117188 C 44.089844 69.464844 44.417969 69.03125 44.800781 68.527344 C 44.933594 68.355469 45.066406 68.175781 45.1875 67.984375 C 45.300781 67.804688 45.496094 67.8125 45.628906 67.894531 C 45.667969 67.921875 45.863281 68.0625 45.726562 68.285156 C 45.621094 68.445312 45.503906 68.59375 45.378906 68.75 C 45.242188 68.914062 45.105469 69.085938 44.992188 69.273438 C 44.75 69.675781 44.859375 69.957031 44.960938 70.199219 C 45.007812 70.316406 45.058594 70.4375 45.074219 70.578125 C 45.117188 70.921875 45.117188 71.199219 44.980469 71.511719 C 44.980469 71.515625 44.980469 71.519531 44.980469 71.523438 C 44.957031 71.5625 44.953125 71.617188 44.972656 71.660156 C 45.003906 71.714844 45.074219 71.75 45.121094 71.746094 C 45.285156 71.738281 45.449219 71.730469 45.613281 71.722656 C 45.875 71.714844 46.136719 71.703125 46.40625 71.683594 C 46.511719 71.671875 46.675781 71.679688 46.867188 71.679688 C 47.710938 71.695312 48.429688 71.675781 48.6875 71.351562 C 48.773438 71.246094 48.800781 71.113281 48.765625 70.964844 C 48.597656 70.285156 48.632812 69.535156 48.667969 68.816406 C 48.675781 68.679688 48.679688 68.542969 48.6875 68.40625 C 48.738281 67.082031 48.578125 65.765625 48.425781 64.492188 C 48.332031 63.707031 48.230469 62.890625 48.1875 62.082031 C 48.15625 61.605469 48.21875 61.070312 48.28125 60.503906 C 48.347656 59.910156 48.417969 59.292969 48.382812 58.722656 C 48.378906 58.664062 48.339844 58.613281 48.285156 58.589844 C 48.230469 58.570312 48.171875 58.578125 48.125 58.617188 C 48.101562 58.636719 48.082031 58.660156 48.058594 58.683594 C 48.046875 58.699219 48.03125 58.714844 48.011719 58.730469 C 47.902344 58.832031 47.789062 58.824219 47.71875 58.800781 C 47.601562 58.761719 47.503906 58.65625 47.480469 58.546875 C 47.460938 58.457031 47.492188 58.375 47.570312 58.304688 C 48.566406 57.40625 48.621094 56.578125 48.679688 55.703125 C 48.703125 55.320312 48.730469 54.925781 48.828125 54.488281 C 49.113281 53.265625 49.265625 52.113281 49.277344 51.0625 C 49.3125 48.757812 49.144531 46.226562 47.628906 44.960938 C 47.496094 44.851562 47.523438 44.730469 47.570312 44.652344 C 47.648438 44.519531 47.828125 44.425781 47.996094 44.496094 C 48.039062 44.511719 48.089844 44.507812 48.132812 44.480469 C 48.175781 44.457031 48.199219 44.414062 48.207031 44.363281 L 48.242188 43.945312 C 48.277344 43.550781 48.3125 43.15625 48.351562 42.765625 C 48.367188 42.597656 48.445312 42.496094 48.582031 42.453125 C 49.203125 42.261719 49.460938 41.816406 49.613281 41.453125 C 49.636719 41.394531 49.625 41.328125 49.578125 41.28125 C 49.535156 41.238281 49.464844 41.226562 49.40625 41.253906 C 48.890625 41.496094 48.328125 41.667969 47.785156 41.761719 C 47.726562 41.769531 47.679688 41.8125 47.664062 41.871094 C 47.550781 42.277344 47.347656 42.660156 47.136719 43.042969 C 46.945312 43.390625 46.703125 43.683594 46.421875 44.027344 C 46.378906 44.074219 46.375 44.144531 46.402344 44.199219 C 46.433594 44.253906 46.5 44.285156 46.5625 44.277344 C 46.660156 44.257812 46.765625 44.25 46.863281 44.25 C 47.054688 44.230469 47.144531 44.398438 47.148438 44.53125 C 47.152344 44.652344 47.09375 44.855469 46.855469 44.863281 C 46.277344 44.878906 45.761719 45.175781 45.394531 45.699219 C 45.371094 45.738281 45.339844 45.769531 45.300781 45.792969 C 45.265625 45.816406 45.242188 45.855469 45.234375 45.894531 C 45.097656 46.691406 45.0625 47.59375 45.027344 48.546875 C 44.996094 49.328125 44.964844 50.136719 44.875 50.910156 C 44.867188 50.972656 44.886719 51.027344 44.945312 51.058594 C 44.960938 51.074219 44.980469 51.085938 45 51.09375 C 45.015625 51.097656 45.035156 51.109375 45.070312 51.128906 C 45.15625 51.171875 45.214844 51.21875 45.261719 51.261719 C 45.410156 51.410156 45.515625 51.542969 45.589844 51.679688 C 45.6875 51.863281 45.582031 52.027344 45.449219 52.101562 C 45.40625 52.125 45.1875 52.226562 45.058594 51.996094 C 45.039062 51.957031 45.011719 51.917969 44.984375 51.867188 C 44.949219 51.816406 44.886719 51.792969 44.828125 51.796875 C 44.765625 51.808594 44.71875 51.855469 44.703125 51.917969 C 44.449219 53.054688 44.007812 53.890625 43.363281 54.472656 C 43.320312 54.511719 43.304688 54.570312 43.316406 54.625 C 43.332031 54.679688 43.375 54.726562 43.429688 54.738281 C 43.734375 54.808594 44.007812 54.757812 44.328125 54.691406 C 44.398438 54.679688 44.46875 54.664062 44.542969 54.648438 C 44.59375 54.644531 44.636719 54.636719 44.683594 54.632812 C 44.898438 54.605469 45.121094 54.574219 45.285156 54.285156 C 45.433594 54.035156 45.578125 53.726562 45.496094 53.332031 C 45.453125 53.097656 45.636719 52.972656 45.773438 52.945312 C 45.832031 52.933594 46.035156 52.910156 46.085938 53.144531 C 46.167969 53.578125 46.085938 54.257812 45.761719 54.730469 C 45.582031 54.996094 45.355469 55.15625 45.082031 55.203125 L 44.914062 55.234375 C 44.832031 55.253906 44.78125 55.332031 44.796875 55.417969 C 44.878906 55.824219 45.132812 56.070312 45.574219 56.175781 C 45.671875 56.199219 46.527344 56.417969 46.828125 56.203125 C 46.902344 56.152344 46.945312 56.078125 46.953125 55.992188 C 46.972656 55.75 47.195312 55.679688 47.335938 55.691406 C 47.410156 55.699219 47.585938 55.738281 47.566406 55.964844 C 47.535156 56.320312 47.382812 56.570312 47.101562 56.730469 C 47.050781 56.757812 47.023438 56.808594 47.023438 56.863281 C 47.023438 56.890625 47.027344 56.914062 47.03125 56.914062 C 47.03125 56.976562 47.023438 57.039062 47.011719 57.105469 C 47.007812 57.171875 47 57.234375 47 57.304688 L 47 57.429688 C 47 57.476562 47.019531 57.519531 47.054688 57.546875 C 47.195312 57.664062 47.167969 57.847656 47.085938 57.964844 C 47.050781 58.015625 46.914062 58.171875 46.707031 58.046875 C 46.371094 57.847656 46.390625 57.511719 46.410156 57.121094 L 46.414062 57.058594 C 46.414062 57.019531 46.398438 56.976562 46.371094 56.945312 C 46.34375 56.914062 46.304688 56.898438 46.261719 56.898438 C 46.074219 56.894531 45.894531 56.875 45.726562 56.835938 C 44.816406 56.65625 44.328125 56.230469 44.1875 55.5 C 44.171875 55.425781 44.105469 55.375 44.023438 55.375 C 43.695312 55.40625 43.429688 55.386719 43.1875 55.316406 C 43.148438 55.304688 43.105469 55.3125 43.070312 55.332031 C 43.035156 55.347656 43.007812 55.382812 42.996094 55.425781 C 42.867188 55.875 42.628906 56.289062 42.375 56.730469 L 42.34375 56.785156 C 42.066406 57.265625 41.574219 57.710938 41.023438 57.976562 C 40.804688 58.078125 40.632812 57.925781 40.570312 57.800781 C 40.546875 57.746094 40.476562 57.558594 40.691406 57.457031 C 41.648438 56.996094 42.472656 55.769531 42.480469 54.777344 C 42.480469 54.753906 42.476562 54.730469 42.464844 54.707031 C 42.40625 54.589844 42.398438 54.417969 42.570312 54.308594 C 44.34375 53.1875 44.480469 49.261719 44.480469 48.085938 C 44.480469 47.757812 44.5 47.421875 44.519531 47.097656 C 44.535156 46.769531 44.550781 46.429688 44.550781 46.089844 C 44.550781 45.714844 44.65625 45.363281 44.769531 44.996094 C 44.917969 44.5 45.074219 43.996094 44.964844 43.40625 C 44.929688 43.222656 44.890625 43.019531 44.84375 42.804688 C 44.613281 41.679688 44.292969 40.132812 44.671875 39.1875 C 44.765625 38.953125 44.921875 38.789062 45.089844 38.609375 C 45.292969 38.394531 45.503906 38.167969 45.625 37.804688 C 45.9375 36.859375 46.078125 36.265625 46.085938 35.269531 C 46.085938 35.039062 46.277344 34.976562 46.394531 34.976562 C 46.394531 34.976562 46.394531 34.976562 46.398438 34.976562 C 46.535156 34.980469 46.699219 35.054688 46.695312 35.269531 C 46.695312 35.386719 46.699219 35.511719 46.699219 35.632812 C 46.707031 36.296875 46.714844 36.980469 46.433594 37.539062 C 46.359375 37.691406 46.242188 37.890625 46.117188 38.113281 C 45.683594 38.882812 45.136719 39.835938 45.214844 40.386719 L 45.257812 40.691406 C 45.402344 41.734375 45.542969 42.722656 45.527344 43.710938 C 45.527344 43.777344 45.570312 43.835938 45.632812 43.859375 C 45.695312 43.878906 45.761719 43.859375 45.804688 43.808594 L 45.96875 43.601562 C 46.546875 42.871094 47.144531 42.117188 47.152344 41.078125 C 47.152344 40.84375 47.347656 40.800781 47.410156 40.792969 C 47.542969 40.777344 47.707031 40.835938 47.746094 41 C 47.765625 41.078125 47.839844 41.132812 47.925781 41.117188 C 49.109375 40.878906 50.257812 40.183594 50.851562 39.339844 C 51.09375 38.992188 51.410156 38.671875 51.714844 38.359375 C 51.976562 38.101562 52.238281 37.835938 52.460938 37.546875 C 52.5 37.5 52.503906 37.433594 52.476562 37.378906 C 52.449219 37.328125 52.398438 37.296875 52.328125 37.300781 C 52.238281 37.308594 52.144531 37.320312 52.046875 37.335938 C 51.851562 37.359375 51.628906 37.386719 51.382812 37.386719 C 51.253906 37.386719 51.210938 37.503906 51.167969 37.609375 C 51.15625 37.636719 51.136719 37.683594 51.132812 37.695312 C 51.011719 37.851562 50.890625 38.023438 50.828125 38.21875 C 50.757812 38.421875 50.558594 38.460938 50.40625 38.410156 C 50.359375 38.394531 50.148438 38.308594 50.226562 38.070312 C 50.296875 37.859375 50.414062 37.675781 50.535156 37.476562 C 50.617188 37.347656 50.703125 37.210938 50.769531 37.066406 C 50.863281 36.882812 50.964844 36.660156 51.023438 36.410156 C 51.039062 36.347656 51.011719 36.285156 50.960938 36.25 C 50.90625 36.210938 50.839844 36.210938 50.789062 36.25 C 49.65625 37.035156 49.109375 38.023438 48.421875 39.269531 L 48.371094 39.363281 C 48.046875 39.949219 47.351562 40.164062 46.679688 40.375 C 46.460938 40.441406 46.25 40.503906 46.058594 40.582031 C 45.964844 40.617188 45.886719 40.613281 45.824219 40.5625 C 45.742188 40.5 45.699219 40.363281 45.71875 40.238281 C 45.726562 40.167969 45.769531 40.039062 45.925781 39.976562 C 46.988281 39.554688 47.679688 39.21875 48.34375 38.144531 C 48.460938 37.953125 48.566406 37.753906 48.675781 37.546875 C 48.820312 37.28125 48.964844 37.007812 49.132812 36.773438 C 49.480469 36.261719 49.894531 36.027344 50.371094 35.75 C 50.648438 35.59375 50.933594 35.429688 51.226562 35.199219 C 51.378906 35.082031 51.535156 34.964844 51.695312 34.84375 C 52.515625 34.21875 53.363281 33.578125 53.957031 32.777344 C 54.195312 32.449219 54.386719 32.097656 54.570312 31.753906 C 54.769531 31.390625 54.960938 31.042969 55.207031 30.722656 C 55.242188 30.671875 55.242188 30.597656 55.214844 30.542969 C 55.023438 30.210938 54.847656 29.902344 54.820312 29.449219 C 54.78125 28.753906 54.808594 28.148438 54.917969 27.363281 C 54.925781 27.304688 54.902344 27.246094 54.851562 27.214844 C 54.808594 27.183594 54.746094 27.179688 54.695312 27.203125 C 54.050781 27.535156 53.148438 27.746094 52.082031 27.808594 C 52.019531 27.8125 51.96875 27.851562 51.945312 27.910156 C 51.933594 27.941406 51.910156 27.972656 51.878906 28.003906 C 51.777344 28.101562 51.675781 28.195312 51.566406 28.285156 C 51.34375 28.484375 51.113281 28.683594 50.933594 28.933594 C 50.875 29.015625 50.796875 29.09375 50.714844 29.175781 C 50.539062 29.34375 50.347656 29.539062 50.289062 29.816406 C 50.234375 30.0625 50.003906 30.027344 49.957031 30.019531 C 49.800781 29.980469 49.652344 29.847656 49.699219 29.636719 C 49.789062 29.246094 50.140625 28.804688 50.425781 28.585938 C 50.527344 28.511719 50.609375 28.40625 50.6875 28.304688 C 50.75 28.222656 50.804688 28.152344 50.871094 28.089844 C 50.886719 28.070312 50.910156 28.054688 50.9375 28.03125 C 50.976562 28 50.996094 27.953125 50.992188 27.902344 C 50.988281 27.851562 50.957031 27.808594 50.917969 27.78125 C 50.785156 27.703125 50.75 27.53125 50.785156 27.40625 C 50.808594 27.332031 50.875 27.203125 51.058594 27.214844 C 52.441406 27.242188 53.8125 26.9375 55.03125 26.324219 C 55.871094 25.90625 56.324219 25.3125 56.796875 24.683594 C 56.960938 24.46875 57.132812 24.246094 57.324219 24.019531 C 57.476562 23.84375 57.636719 23.957031 57.6875 23.996094 C 57.792969 24.089844 57.898438 24.292969 57.742188 24.476562 C 57.539062 24.714844 57.390625 24.953125 57.246094 25.183594 C 57.03125 25.53125 56.828125 25.859375 56.472656 26.128906 C 56.164062 26.355469 55.851562 26.542969 55.558594 26.710938 C 55.523438 26.734375 55.496094 26.765625 55.488281 26.808594 C 55.480469 26.847656 55.484375 26.890625 55.511719 26.929688 C 55.550781 26.996094 55.566406 27.074219 55.558594 27.152344 C 55.363281 28.421875 55.445312 29.300781 55.851562 30.292969 C 55.871094 30.339844 55.910156 30.375 55.957031 30.386719 C 56.003906 30.394531 56.054688 30.382812 56.09375 30.351562 C 56.597656 29.925781 56.945312 29.390625 57.28125 28.878906 C 57.675781 28.269531 58.050781 27.699219 58.648438 27.320312 C 60.296875 26.285156 61.308594 24.402344 62.121094 22.886719 C 62.914062 21.398438 63.816406 19.648438 64.472656 17.902344 C 64.535156 17.730469 64.605469 17.546875 64.671875 17.359375 C 64.921875 16.667969 65.183594 15.957031 65.523438 15.328125 C 65.550781 15.273438 65.546875 15.207031 65.507812 15.15625 C 65.46875 15.109375 65.40625 15.089844 65.347656 15.105469 C 65.171875 15.152344 65.035156 15.230469 64.886719 15.320312 C 64.828125 15.355469 64.765625 15.390625 64.699219 15.425781 C 64.523438 15.515625 64.34375 15.539062 64.15625 15.566406 C 63.867188 15.605469 63.570312 15.644531 63.3125 15.917969 C 63.054688 16.199219 62.757812 16.457031 62.410156 16.707031 C 62.230469 16.839844 62.105469 16.710938 62.0625 16.648438 C 61.980469 16.535156 61.925781 16.304688 62.125 16.160156 C 62.320312 16.023438 62.488281 15.84375 62.65625 15.671875 C 62.988281 15.328125 63.300781 15 63.75 14.996094 C 64.09375 14.988281 64.351562 14.851562 64.574219 14.726562 C 64.742188 14.632812 64.898438 14.550781 65.082031 14.515625 C 65.160156 14.5 65.238281 14.488281 65.308594 14.484375 C 65.574219 14.453125 65.855469 14.421875 66.070312 14.078125 C 66.128906 13.984375 66.214844 13.9375 66.328125 13.9375 C 66.390625 13.9375 66.449219 13.945312 66.503906 13.972656 C 68.070312 14.707031 68.765625 13.332031 69.378906 12.117188 C 69.742188 11.398438 70.121094 10.65625 70.644531 10.394531 C 71.296875 10.070312 71.609375 9.726562 71.839844 9.082031 L 71.863281 9.019531 C 71.957031 8.796875 72.074219 8.523438 71.914062 8.386719 C 71.773438 8.273438 71.585938 8.375 71.421875 8.492188 " fill-opacity="1" fill-rule="nonzero"/></g><g clip-path="url(#clip-1)"><path fill="rgb(98.039246%, 98.039246%, 98.039246%)" d="M 73.296875 4.507812 C 73.152344 4.347656 72.886719 4.429688 72.648438 4.53125 C 72.644531 4.535156 72.640625 4.535156 72.640625 4.535156 L 72.585938 4.550781 C 72.554688 4.5625 72.527344 4.582031 72.507812 4.613281 C 72.441406 4.714844 72.378906 4.808594 72.332031 4.902344 C 72.183594 5.171875 72.03125 5.4375 71.882812 5.707031 C 71.589844 6.230469 71.285156 6.773438 71.011719 7.320312 C 70.976562 7.386719 70.992188 7.460938 71.050781 7.507812 C 71.078125 7.53125 71.113281 7.542969 71.148438 7.542969 C 71.179688 7.542969 71.210938 7.535156 71.238281 7.511719 C 71.570312 7.265625 72 6.921875 72.375 6.453125 C 72.625 6.140625 72.953125 5.644531 73.144531 5.300781 C 73.339844 4.9375 73.441406 4.667969 73.296875 4.507812 " fill-opacity="1" fill-rule="nonzero"/></g></svg>